<svg width="24" height="24" viewBox="0 0 24 24" fill="none" xmlns="http://www.w3.org/2000/svg">
<path d="M21.0373 16.075L17.8623 15.7125C17.0998 15.625 16.3498 15.8875 15.8123 16.425L13.5123 18.7249C9.97481 16.9249 7.07481 14.0375 5.27481 10.4875L7.58731 8.17495C8.12481 7.63745 8.38731 6.88745 8.29981 6.12495L7.93731 2.97495C7.78731 1.71245 6.72481 0.762451 5.44981 0.762451H3.28731C1.87481 0.762451 0.699807 1.93745 0.787307 3.34995C1.44981 14.025 9.98731 22.5499 20.6498 23.2125C22.0623 23.2999 23.2373 22.1249 23.2373 20.7125V18.5499C23.2498 17.2875 22.2998 16.225 21.0373 16.075Z" fill="white"/>
</svg>