<svg width="46" height="20" viewBox="0 0 46 20" fill="none" xmlns="http://www.w3.org/2000/svg">
<path d="M10.58 4.65015H0L10.58 15.3901V4.65015Z" fill="white"/>
<path d="M39.57 4.65007C38.0291 4.65007 36.5513 5.26219 35.4617 6.35178C34.3721 7.44136 33.76 8.91916 33.76 10.4601V18.5801C33.76 18.9567 33.9096 19.3179 34.1759 19.5842C34.4422 19.8505 34.8034 20.0001 35.18 20.0001C35.5566 20.0001 35.9178 19.8505 36.1841 19.5842C36.4504 19.3179 36.6 18.9567 36.6 18.5801V15.4301C37.5014 15.9872 38.5404 16.2816 39.6 16.2801C40.3839 16.3126 41.1663 16.1863 41.9002 15.9087C42.6341 15.6311 43.3042 15.208 43.8704 14.6648C44.4366 14.1217 44.8871 13.4696 45.1948 12.7479C45.5026 12.0262 45.6612 11.2497 45.6612 10.4651C45.6612 9.68047 45.5026 8.90397 45.1948 8.18225C44.8871 7.46052 44.4366 6.80848 43.8704 6.2653C43.3042 5.72212 42.6341 5.29903 41.9002 5.02145C41.1663 4.74388 40.3839 4.61755 39.6 4.65007H39.57ZM39.6 13.4301C39.0067 13.4301 38.4266 13.2541 37.9333 12.9245C37.44 12.5948 37.0554 12.1263 36.8284 11.5781C36.6013 11.0299 36.5419 10.4267 36.6577 9.8448C36.7734 9.26286 37.0591 8.72831 37.4787 8.30875C37.8982 7.88919 38.4328 7.60347 39.0147 7.48771C39.5967 7.37196 40.1999 7.43137 40.7481 7.65843C41.2962 7.88549 41.7648 8.27001 42.0944 8.76336C42.4241 9.25671 42.6 9.83673 42.6 10.4301C42.6 11.2257 42.2839 11.9888 41.7213 12.5514C41.1587 13.114 40.3957 13.4301 39.6 13.4301ZM20.6 4.65007C19.5408 4.65168 18.5026 4.94583 17.6 5.50007V2.00007C17.6 1.62346 17.4504 1.26228 17.1841 0.995977C16.9178 0.729676 16.5566 0.580069 16.18 0.580069C15.8034 0.580069 15.4422 0.729676 15.1759 0.995977C14.9096 1.26228 14.76 1.62346 14.76 2.00007V10.4701C14.764 11.6183 15.1081 12.7396 15.7489 13.6925C16.3897 14.6453 17.2985 15.3868 18.3604 15.8235C19.4224 16.2602 20.59 16.3724 21.7157 16.146C22.8414 15.9195 23.8748 15.3646 24.6853 14.5513C25.4959 13.738 26.0472 12.7027 26.2698 11.5762C26.4924 10.4497 26.3761 9.28256 25.9358 8.22208C25.4955 7.16161 24.7508 6.25539 23.7958 5.61786C22.8408 4.98033 21.7183 4.64008 20.57 4.64007L20.6 4.65007ZM20.57 13.4301C19.9767 13.4301 19.3966 13.2541 18.9033 12.9245C18.41 12.5948 18.0254 12.1263 17.7984 11.5781C17.5713 11.0299 17.5119 10.4267 17.6277 9.8448C17.7434 9.26286 18.0291 8.72831 18.4487 8.30875C18.8682 7.88919 19.4028 7.60347 19.9847 7.48771C20.5667 7.37196 21.1699 7.43137 21.7181 7.65843C22.2662 7.88549 22.7348 8.27001 23.0644 8.76336C23.3941 9.25671 23.57 9.83673 23.57 10.4301C23.57 11.2257 23.2539 11.9888 22.6913 12.5514C22.1287 13.114 21.3657 13.4301 20.57 13.4301ZM31.47 13.5801C31.27 13.4801 30.69 13.1901 30.69 10.9301V6.08007C30.7065 5.88425 30.6821 5.68714 30.6185 5.50122C30.5549 5.31529 30.4533 5.1446 30.3203 4.99993C30.1873 4.85527 30.0258 4.73979 29.8458 4.66079C29.6659 4.5818 29.4715 4.54101 29.275 4.54101C29.0785 4.54101 28.8841 4.5818 28.7042 4.66079C28.5243 4.73979 28.3627 4.85527 28.2297 4.99993C28.0967 5.1446 27.9951 5.31529 27.9315 5.50122C27.8679 5.68714 27.8435 5.88425 27.86 6.08007V10.9401C27.86 12.6601 28.1 15.0701 30.19 16.1301C30.5284 16.297 30.9191 16.3233 31.2768 16.2035C31.6346 16.0836 31.9305 15.8272 32.1 15.4901C32.1841 15.3241 32.2346 15.1431 32.2484 14.9575C32.2623 14.772 32.2392 14.5855 32.1807 14.4089C32.1221 14.2323 32.0292 14.069 31.9072 13.9284C31.7852 13.7879 31.6366 13.6729 31.47 13.5901V13.5801ZM29.28 3.71007C29.591 3.71006 29.8949 3.61773 30.1533 3.44477C30.4117 3.27181 30.6129 3.02601 30.7314 2.73855C30.85 2.45109 30.8805 2.1349 30.8191 1.83008C30.7577 1.52526 30.6072 1.24554 30.3866 1.02637C30.166 0.807205 29.8853 0.658472 29.5801 0.599027C29.2749 0.539582 28.9589 0.572104 28.6722 0.692468C28.3855 0.812832 28.141 1.01562 27.9697 1.27512C27.7984 1.53461 27.708 1.83913 27.71 2.15007C27.71 2.35578 27.7507 2.55945 27.8297 2.74937C27.9087 2.9393 28.0245 3.11172 28.1705 3.25671C28.3164 3.4017 28.4895 3.5164 28.68 3.5942C28.8704 3.67201 29.0743 3.71139 29.28 3.71007Z" fill="white"/>
</svg>