<svg width="28" height="20" viewBox="0 0 28 20" fill="none" xmlns="http://www.w3.org/2000/svg">
<path d="M17.6343 16.3449C17.123 16.5685 16.8897 17.1645 17.1137 17.6758C17.3372 18.187 17.9328 18.4204 18.4445 18.1963C20.0065 17.513 21.215 16.3446 22.0078 14.7949C21.9031 15.9223 21.5687 17.0482 21.1674 17.8509C20.93 18.3547 21.1555 18.9345 21.6589 19.1729C22.1636 19.4132 22.774 19.1763 23.0143 18.6735C23.4048 17.8548 24.0234 16.2429 24.0656 14.1867C24.6012 15.3582 24.9315 16.512 25.1352 17.4789C25.2501 18.0252 25.788 18.3745 26.3323 18.2595C26.8785 18.1445 27.2278 17.6086 27.1129 17.0624C26.0585 12.0531 24.063 11.2183 22.5578 6.31196C22.34 5.60182 22.1293 3.9787 22.0887 2.51144C22.0811 2.23805 21.8574 2.02013 21.5839 2.02013L17.5042 2.02013C17.2472 2.02013 17.0322 2.21245 17.0029 2.46778C16.7517 4.65326 14.7509 6.53647 14.179 8.40793C13.9971 9.04452 14.4822 9.69133 15.1593 9.69133C15.5837 9.69133 15.9879 9.42858 16.0991 9.01427C16.4023 7.96331 17.423 7.1346 18.5447 7.16488C20.7802 7.14228 21.9325 9.92592 20.3335 11.4801C19.0363 12.8149 16.663 12.2937 16.1092 10.3685C15.9879 9.95411 15.5837 9.69136 15.1593 9.69136C14.4822 9.69136 13.987 10.3483 14.1891 10.995C14.9551 13.4893 17.6452 14.9268 20.2007 13.9157C19.6271 15.0206 18.7748 15.8458 17.6343 16.3449Z" fill="white"/>
<path d="M9.5005 2.9224C10.0117 2.69886 10.2451 2.10278 10.0211 1.59157C9.79754 1.08035 9.20198 0.846973 8.69025 1.07098C7.12827 1.75437 5.91975 2.92273 5.12696 4.47242C5.23162 3.34505 5.56605 2.2191 5.96738 1.4164C6.20474 0.912594 5.97924 0.332792 5.47591 0.0944637C4.97112 -0.145852 4.36073 0.0909941 4.12042 0.593824C3.72997 1.41253 3.11132 3.02447 3.06915 5.08059C2.53358 3.90916 2.20322 2.75535 1.99959 1.78843C1.88462 1.24218 1.34675 0.89282 0.802491 1.00779C0.256274 1.12279 -0.0930828 1.6587 0.0218872 2.20492C1.07626 7.21418 3.07181 8.04899 4.57696 12.9554C4.79481 13.6655 5.00542 15.2886 5.04604 16.7559C5.05362 17.0293 5.27736 17.2472 5.55086 17.2472H9.63056C9.88758 17.2472 10.1026 17.0549 10.1319 16.7995C10.3831 14.6141 12.3839 12.7309 12.9558 10.8594C13.1377 10.2228 12.6526 9.57601 11.9755 9.57601C11.5511 9.57601 11.1469 9.83876 11.0356 10.2531C10.7325 11.304 9.71178 12.1327 8.59007 12.1024C6.3546 12.1251 5.20224 9.34142 6.80131 7.78725C8.09846 6.45248 10.4718 6.97367 11.0255 8.89885C11.1469 9.31322 11.5511 9.57597 11.9755 9.57597C12.6526 9.57597 13.1478 8.91906 12.9457 8.27229C12.1797 5.77805 9.48952 4.34051 6.93407 5.35162C7.50771 4.24672 8.35996 3.42149 9.5005 2.9224Z" fill="white"/>
</svg>
