<svg width="18" height="26" viewBox="0 0 18 26" fill="none" xmlns="http://www.w3.org/2000/svg">
<path d="M9 5.5C10.3807 5.5 11.5 4.38071 11.5 3C11.5 1.61929 10.3807 0.5 9 0.5C7.61929 0.5 6.5 1.61929 6.5 3C6.5 4.38071 7.61929 5.5 9 5.5Z" fill="white"/>
<path d="M17.75 12.875C17.75 12.2625 17.3 11.7625 16.7 11.6625C15.1375 11.4 13.6625 10.5625 12.6625 9.46251L11.05 7.67501C10.8375 7.43751 10.575 7.25001 10.2875 7.11251C10.275 7.11251 10.275 7.10001 10.2625 7.10001H10.25C9.7875 6.83751 9.275 6.71251 8.6875 6.78751C7.4125 6.93751 6.5 8.08751 6.5 9.37501V16.75C6.5 18.125 7.625 19.25 9 19.25H15.25V24.25C15.25 24.9375 15.8125 25.5 16.5 25.5C17.1875 25.5 17.75 24.9375 17.75 24.25V18.625C17.75 17.25 16.625 16.125 15.25 16.125H11.5V11.8125C12.75 12.85 14.5 13.7375 16.25 14.0875C17.025 14.25 17.75 13.6625 17.75 12.875ZM10.0375 20.5C9.525 21.95 8.1375 23 6.5 23C4.425 23 2.75 21.325 2.75 19.25C2.75 17.6125 3.8 16.2375 5.25 15.7125V13.125C2.4 13.7 0.25 16.225 0.25 19.25C0.25 22.7 3.05 25.5 6.5 25.5C9.525 25.5 12.05 23.35 12.625 20.5H10.0375Z" fill="white"/>
</svg>
