<svg width="1461" height="132" viewBox="0 0 1461 132" fill="none" xmlns="http://www.w3.org/2000/svg">
<path d="M636.514 41.5233C635.562 41.5233 634.686 41.5626 633.881 41.6293V49.615H635.84C636.932 49.615 637.893 49.5552 638.724 49.4331C639.558 49.3186 640.253 49.1033 640.81 48.7936C641.366 48.4878 641.789 48.0704 642.076 47.5484C642.36 47.0256 642.502 46.3592 642.502 45.5506C642.502 44.7941 642.36 44.1499 642.076 43.6288C641.789 43.1077 641.381 42.6903 640.843 42.3789C640.316 42.0701 639.677 41.8484 638.937 41.7211C638.2 41.5921 637.391 41.5233 636.514 41.5233ZM636.195 37.6426C639.762 37.6426 642.485 38.2936 644.375 39.602C646.262 40.904 647.209 42.9009 647.209 45.5882C647.209 48.938 645.56 51.2049 642.252 52.3937C642.707 52.9418 643.216 53.603 643.789 54.3907C644.356 55.1741 644.938 56.0263 645.534 56.9374C646.126 57.852 646.692 58.7913 647.243 59.7567C647.79 60.7182 648.276 61.6597 648.71 62.5875H643.683C643.229 61.7319 642.741 60.8686 642.218 60.0027C641.695 59.1356 641.17 58.2932 640.631 57.4722C640.097 56.6529 639.57 55.8819 639.047 55.1549C638.525 54.4321 638.037 53.7841 637.584 53.213C637.253 53.2403 636.968 53.2493 636.731 53.2493H636.054H633.881V62.587H629.384V38.2466C630.481 38.0099 631.646 37.8463 632.884 37.7618C634.116 37.6793 635.222 37.6426 636.195 37.6426Z" fill="black"/>
<path d="M665.314 46.976C664.833 47.4711 664.218 48.1768 663.443 49.0776C662.669 49.9815 661.846 50.9832 660.962 52.0891C660.081 53.1946 659.202 54.3484 658.31 55.5483C657.418 56.7473 656.616 57.8942 655.906 58.9878H665.522V62.5853H650.702V59.9156C651.223 58.9609 651.879 57.931 652.663 56.8118C653.446 55.6965 654.255 54.5726 655.084 53.4428C655.916 52.3168 656.743 51.2421 657.563 50.2199C658.38 49.1985 659.114 48.3045 659.753 47.5488H651.163V43.9453H665.314V46.976H665.314Z" fill="black"/>
<path d="M680.387 51.4303C680.387 50.8391 680.305 50.2735 680.138 49.7392C679.976 49.2052 679.73 48.7392 679.413 48.3488C679.085 47.9575 678.695 47.6469 678.23 47.4201C677.77 47.1954 677.218 47.0818 676.574 47.0818C675.907 47.0818 675.324 47.2065 674.826 47.4556C674.33 47.7084 673.905 48.0335 673.563 48.4372C673.216 48.843 672.949 49.3065 672.763 49.8255C672.569 50.3483 672.444 50.8848 672.365 51.4299H680.387V51.4303ZM667.879 53.3542C667.879 51.7186 668.118 50.2804 668.61 49.0429C669.094 47.8046 669.744 46.7794 670.548 45.9584C671.361 45.1408 672.281 44.5201 673.332 44.1045C674.375 43.691 675.448 43.4834 676.538 43.4834C679.109 43.4834 681.107 44.2783 682.547 45.8717C683.987 47.4658 684.701 49.8408 684.701 52.9958C684.701 53.2389 684.695 53.5033 684.682 53.7998C684.67 54.0979 684.649 54.367 684.63 54.6015H672.335C672.448 56.1017 672.983 57.2585 673.917 58.0735C674.857 58.8958 676.221 59.3093 678.002 59.3093C679.044 59.3093 680.002 59.2106 680.868 59.0218C681.736 58.8326 682.421 58.6275 682.917 58.4148L683.492 61.9419C683.251 62.0636 682.926 62.1888 682.507 62.3207C682.091 62.4515 681.615 62.5706 681.088 62.6761C680.549 62.7829 679.977 62.8735 679.353 62.9418C678.738 63.0149 678.106 63.0495 677.469 63.0495C675.825 63.0495 674.402 62.8073 673.19 62.3207C671.979 61.8287 670.981 61.1563 670.192 60.2841C669.409 59.4216 668.829 58.3994 668.448 57.2187C668.067 56.047 667.879 54.7596 667.879 53.3542Z" fill="black"/>
<path d="M688.228 53.285C688.228 51.9079 688.443 50.6157 688.876 49.4179C689.298 48.218 689.91 47.1779 690.704 46.2992C691.502 45.4223 692.475 44.7337 693.612 44.2331C694.758 43.7341 696.033 43.4834 697.464 43.4834C699.217 43.4834 700.885 43.8016 702.45 44.4466L701.527 47.9733C701.025 47.7606 700.46 47.5829 699.835 47.4436C699.202 47.2996 698.533 47.2283 697.819 47.2283C696.129 47.2283 694.849 47.7516 693.969 48.8127C693.091 49.8703 692.652 51.3645 692.652 53.2855C692.652 55.1402 693.066 56.6079 693.902 57.6852C694.728 58.7685 696.129 59.3101 698.104 59.3101C698.842 59.3101 699.561 59.2332 700.279 59.0948C700.992 58.9543 701.61 58.7736 702.132 58.5609L702.738 62.1243C702.262 62.3579 701.542 62.5753 700.581 62.7637C699.621 62.9559 698.629 63.0482 697.604 63.0482C696.01 63.0482 694.627 62.806 693.45 62.3225C692.277 61.8304 691.304 61.1572 690.531 60.287C689.758 59.4229 689.18 58.387 688.802 57.185C688.421 55.9864 688.228 54.6853 688.228 53.285Z" fill="black"/>
<path d="M719.129 46.976C718.657 47.4711 718.025 48.1768 717.257 49.0776C716.484 49.9815 715.657 50.9832 714.781 52.0891C713.904 53.1946 713.017 54.3484 712.125 55.5483C711.235 56.7473 710.429 57.8942 709.715 58.9878H719.34V62.5853H704.518V59.9156C705.039 58.9609 705.688 57.931 706.475 56.8118C707.258 55.6965 708.063 54.5726 708.9 53.4428C709.732 52.3168 710.558 51.2421 711.375 50.2199C712.2 49.1985 712.927 48.3045 713.569 47.5488H704.978V43.9453H719.129V46.976H719.129Z" fill="black"/>
<path d="M735.7 53.3544C735.7 51.4305 735.266 49.9316 734.398 48.8662C733.531 47.7971 732.131 47.2627 730.21 47.2627C729.809 47.2627 729.385 47.2793 728.947 47.3127C728.507 47.3511 728.074 47.4271 727.645 47.548V58.2061C728.028 58.462 728.535 58.708 729.158 58.931C729.787 59.1587 730.462 59.2714 731.17 59.2714C732.737 59.2714 733.893 58.7388 734.612 57.6675C735.335 56.6004 735.7 55.1613 735.7 53.3544ZM740.117 53.2852C740.117 54.7081 739.934 56.0173 739.564 57.2061C739.195 58.3932 738.671 59.4154 737.983 60.2693C737.293 61.1262 736.431 61.7904 735.397 62.2654C734.362 62.7421 733.191 62.9809 731.885 62.9809C731.002 62.9809 730.193 62.8741 729.462 62.6575C728.727 62.4431 728.122 62.2077 727.645 61.9412V69.1781H723.332V44.5523C724.207 44.3166 725.289 44.0897 726.574 43.8791C727.86 43.663 729.212 43.5532 730.637 43.5532C732.112 43.5532 733.427 43.7783 734.592 44.2328C735.756 44.6839 736.748 45.3319 737.571 46.1738C738.392 47.0162 739.022 48.041 739.458 49.2391C739.899 50.4395 740.117 51.7872 740.117 53.2852Z" fill="black"/>
<path d="M757.008 53.2483C757.008 51.3927 756.618 49.9293 755.818 48.8498C755.018 47.7683 753.912 47.2279 752.484 47.2279C751.059 47.2279 749.947 47.7683 749.153 48.8498C748.361 49.9297 747.957 51.3931 747.957 53.2483C747.957 55.1235 748.361 56.6096 749.153 57.7049C749.947 58.7941 751.059 59.3422 752.484 59.3422C753.912 59.3422 755.018 58.7941 755.818 57.7049C756.618 56.6096 757.008 55.1235 757.008 53.2483ZM761.433 53.2483C761.433 54.7241 761.22 56.0624 760.791 57.2743C760.364 58.4887 759.756 59.5211 758.972 60.3767C758.189 61.2306 757.243 61.8983 756.143 62.375C755.035 62.8479 753.817 63.0862 752.484 63.0862C751.161 63.0862 749.942 62.8479 748.852 62.375C747.759 61.8983 746.819 61.2306 746.036 60.3767C745.252 59.5211 744.642 58.4887 744.204 57.2743C743.758 56.0624 743.541 54.7241 743.541 53.2483C743.541 51.7746 743.758 50.4389 744.204 49.239C744.642 48.0399 745.258 47.01 746.052 46.1544C746.85 45.3005 747.79 44.641 748.894 44.1797C749.978 43.7153 751.18 43.4834 752.484 43.4834C753.797 43.4834 754.997 43.7149 756.106 44.1797C757.206 44.641 758.152 45.301 758.935 46.1544C759.719 47.01 760.334 48.0399 760.775 49.239C761.214 50.4393 761.433 51.7746 761.433 53.2483Z" fill="black"/>
<path d="M770.552 59.4835C771.698 59.4835 772.528 59.3472 773.05 59.0747C773.571 58.8039 773.838 58.334 773.838 57.6672C773.838 57.0504 773.557 56.5395 772.996 56.1375C772.438 55.7292 771.513 55.2909 770.232 54.8176C769.449 54.5327 768.731 54.2311 768.079 53.9039C767.423 53.5865 766.86 53.2136 766.382 52.7869C765.91 52.3572 765.533 51.8386 765.262 51.2329C764.988 50.6272 764.854 49.8869 764.854 49.0082C764.854 47.2992 765.479 45.9519 766.74 44.9634C767.998 43.9754 769.711 43.4829 771.875 43.4829C772.965 43.4829 774.007 43.5837 775.007 43.7858C776.011 43.9912 776.757 44.1839 777.258 44.3761L776.47 47.866C775.994 47.6537 775.387 47.4555 774.651 47.2787C773.922 47.1014 773.064 47.0104 772.088 47.0104C771.208 47.0104 770.495 47.1625 769.951 47.4555C769.395 47.7507 769.126 48.2141 769.126 48.8275C769.126 49.1372 769.178 49.4102 769.288 49.6464C769.395 49.8869 769.58 50.1069 769.839 50.3098C770.101 50.5097 770.441 50.7117 770.876 50.9155C771.297 51.1175 771.828 51.3234 772.441 51.5366C773.466 51.9172 774.334 52.2922 775.045 52.6596C775.759 53.0265 776.349 53.4439 776.81 53.9035C777.266 54.3699 777.612 54.8996 777.822 55.4951C778.041 56.0884 778.145 56.7996 778.145 57.6322C778.145 59.4147 777.487 60.7628 776.166 61.6774C774.849 62.5936 772.965 63.0473 770.52 63.0473C768.88 63.0473 767.559 62.911 766.561 62.6398C765.563 62.3677 764.863 62.1477 764.455 61.9802L765.209 58.3776C765.85 58.6415 766.613 58.8919 767.505 59.1264C768.396 59.369 769.413 59.4835 770.552 59.4835Z" fill="black"/>
<path d="M794.542 53.3544C794.542 51.4305 794.102 49.9316 793.24 48.8662C792.371 47.7971 790.979 47.2627 789.052 47.2627C788.644 47.2627 788.221 47.2793 787.781 47.3127C787.342 47.3511 786.917 47.4271 786.486 47.548V58.2061C786.864 58.462 787.368 58.708 788.002 58.931C788.635 59.1587 789.304 59.2714 790.011 59.2714C791.585 59.2714 792.721 58.7388 793.455 57.6675C794.181 56.6004 794.542 55.1613 794.542 53.3544ZM798.959 53.2852C798.959 54.7081 798.771 56.0173 798.407 57.2061C798.042 58.3932 797.509 59.4154 796.817 60.2693C796.134 61.1262 795.267 61.7904 794.238 62.2654C793.203 62.7421 792.033 62.9809 790.729 62.9809C789.844 62.9809 789.04 62.8741 788.3 62.6575C787.563 62.4431 786.958 62.2077 786.486 61.9412V69.1781H782.173V44.5523C783.054 44.3166 784.131 44.0897 785.415 43.8791C786.702 43.663 788.054 43.5532 789.479 43.5532C790.954 43.5532 792.275 43.7783 793.44 44.2328C794.597 44.6839 795.59 45.3319 796.408 46.1738C797.23 47.0162 797.857 48.041 798.299 49.2391C798.742 50.4395 798.959 51.7872 798.959 53.2852Z" fill="black"/>
<path d="M815.856 53.2483C815.856 51.3927 815.453 49.9293 814.66 48.8498C813.866 47.7683 812.755 47.2279 811.326 47.2279C809.901 47.2279 808.789 47.7683 807.995 48.8498C807.197 49.9297 806.805 51.3931 806.805 53.2483C806.805 55.1235 807.197 56.6096 807.995 57.7049C808.789 58.7941 809.901 59.3422 811.326 59.3422C812.755 59.3422 813.866 58.7941 814.66 57.7049C815.453 56.6096 815.856 55.1235 815.856 53.2483ZM820.273 53.2483C820.273 54.7241 820.062 56.0624 819.633 57.2743C819.202 58.4887 818.599 59.5211 817.814 60.3767C817.025 61.2306 816.085 61.8983 814.979 62.375C813.878 62.8479 812.658 63.0862 811.326 63.0862C809.997 63.0862 808.784 62.8479 807.693 62.375C806.601 61.8983 805.661 61.2306 804.878 60.3767C804.093 59.5211 803.484 58.4887 803.045 57.2743C802.599 56.0624 802.382 54.7241 802.382 53.2483C802.382 51.7746 802.599 50.4389 803.045 49.239C803.484 48.0399 804.099 47.01 804.897 46.1544C805.691 45.3005 806.637 44.641 807.724 44.1797C808.82 43.7153 810.022 43.4834 811.326 43.4834C812.628 43.4834 813.839 43.7149 814.948 44.1797C816.05 44.641 816.994 45.301 817.777 46.1544C818.567 47.01 819.171 48.0399 819.609 49.239C820.056 50.4393 820.273 51.7746 820.273 53.2483Z" fill="black"/>
<path d="M831.211 62.9426C829.926 62.9191 828.867 62.7769 828.024 62.5146C827.18 62.254 826.505 61.8828 826.011 61.3907C825.511 60.9059 825.158 60.3002 824.959 59.5744C824.757 58.8487 824.655 58.0234 824.655 57.0986V38.8443L828.967 38.1318V56.2793C828.967 56.8005 829.009 57.2438 829.09 57.5984C829.176 57.9563 829.321 58.2579 829.542 58.5082C829.747 58.756 830.04 58.9465 830.407 59.0772C830.778 59.2084 831.247 59.31 831.817 59.3784L831.211 62.9426Z" fill="black"/>
<path d="M839.656 62.5855H835.349V43.9459H839.656V62.5855ZM840.122 38.497C840.122 39.3026 839.86 39.9421 839.339 40.4192C838.816 40.896 838.195 41.1313 837.484 41.1313C836.753 41.1313 836.121 40.896 835.599 40.4192C835.078 39.9421 834.816 39.3031 834.816 38.497C834.816 37.6632 835.078 37.0096 835.599 36.5368C836.121 36.0588 836.753 35.8213 837.484 35.8213C838.195 35.8213 838.816 36.0588 839.339 36.5368C839.86 37.0096 840.122 37.6632 840.122 38.497Z" fill="black"/>
<path d="M844.931 38.844L849.246 38.1323V43.9451H855.875V47.5486H849.246V55.1397C849.246 56.6326 849.481 57.704 849.957 58.3434C850.433 58.9884 851.244 59.3097 852.38 59.3097C853.169 59.3097 853.863 59.2259 854.469 59.0598C855.077 58.8923 855.557 58.7385 855.911 58.5924L856.626 62.0187C856.124 62.2301 855.467 62.4497 854.661 62.6761C853.853 62.9012 852.901 63.0148 851.811 63.0148C850.479 63.0148 849.367 62.8359 848.483 62.48C847.59 62.1246 846.879 61.6052 846.358 60.9282C845.831 60.2515 845.469 59.4301 845.257 58.4686C845.036 57.5075 844.931 56.4114 844.931 55.1747V38.844Z" fill="black"/>
<path d="M866.602 59.5595C867.933 59.5595 868.942 59.4835 869.633 59.3421V54.5673C869.391 54.4955 869.048 54.4272 868.598 54.352C868.144 54.2849 867.648 54.2465 867.098 54.2465C866.631 54.2465 866.148 54.2849 865.658 54.352C865.171 54.4272 864.731 54.5562 864.335 54.7454C863.949 54.9347 863.635 55.2021 863.397 55.5481C863.156 55.8906 863.039 56.3268 863.039 56.8479C863.039 57.8714 863.36 58.5749 864 58.9692C864.639 59.3626 865.511 59.5595 866.602 59.5595ZM866.242 43.4829C867.673 43.4829 868.869 43.6606 869.844 44.0164C870.817 44.3761 871.596 44.872 872.181 45.5106C872.761 46.1548 873.179 46.9348 873.431 47.8519C873.675 48.7665 873.798 49.766 873.798 50.8634V62.1592C873.138 62.2997 872.134 62.4736 870.79 62.6765C869.445 62.8768 867.933 62.9806 866.243 62.9806C865.131 62.9806 864.11 62.873 863.182 62.6594C862.257 62.442 861.464 62.1015 860.812 61.6248C860.157 61.1481 859.647 60.5326 859.282 59.771C858.911 59.0098 858.726 58.073 858.726 56.956C858.726 55.8885 858.936 54.9851 859.347 54.2465C859.766 53.5118 860.33 52.9099 861.045 52.4443C861.757 51.983 862.58 51.6502 863.522 51.4494C864.462 51.2483 865.437 51.1457 866.464 51.1457C866.931 51.1457 867.434 51.1735 867.954 51.235C868.479 51.2944 869.037 51.3905 869.633 51.537V50.8254C869.633 50.3243 869.575 49.8485 869.454 49.4025C869.335 48.9467 869.131 48.5503 868.828 48.2073C868.529 47.8622 868.139 47.5939 867.655 47.4047C867.168 47.2142 866.555 47.1172 865.82 47.1172C864.822 47.1172 863.907 47.1932 863.072 47.3333C862.241 47.4709 861.568 47.6383 861.045 47.8314L860.509 44.3394C861.051 44.1471 861.849 43.9605 862.895 43.7712C863.943 43.579 865.054 43.4829 866.242 43.4829Z" fill="black"/>
<path d="M636.687 74.5648C635.552 74.5648 634.616 74.605 633.873 74.6725V83.0888H636.054C638.212 83.0888 639.873 82.7851 641.042 82.1756C642.206 81.5715 642.789 80.4255 642.789 78.7373C642.789 77.9313 642.629 77.2525 642.321 76.7083C642.018 76.1586 641.584 75.7318 641.042 75.4221C640.496 75.1142 639.846 74.8972 639.093 74.7622C638.346 74.6357 637.543 74.5648 636.687 74.5648ZM636.373 70.6841C639.959 70.6841 642.705 71.3338 644.619 72.6439C646.536 73.9514 647.486 75.9937 647.486 78.7758C647.486 80.2239 647.232 81.466 646.725 82.4985C646.21 83.5314 645.47 84.3754 644.499 85.0251C643.524 85.6847 642.335 86.1618 640.935 86.4715C639.528 86.7829 637.929 86.9328 636.121 86.9328H633.873V95.6281H629.384V71.2894C630.428 71.0549 631.587 70.8891 632.858 70.8088C634.132 70.7264 635.303 70.6841 636.373 70.6841Z" fill="black"/>
<path d="M663.171 86.2944C663.171 84.4405 662.775 82.9749 661.975 81.8946C661.181 80.81 660.068 80.2735 658.642 80.2735C657.222 80.2735 656.11 80.81 655.316 81.8946C654.519 82.9749 654.12 84.4405 654.12 86.2944C654.12 88.1692 654.519 89.6574 655.316 90.7479C656.11 91.8423 657.222 92.3899 658.642 92.3899C660.068 92.3899 661.181 91.8423 661.975 90.7479C662.776 89.6574 663.171 88.1687 663.171 86.2944ZM667.59 86.2944C667.59 87.7651 667.377 89.1093 666.948 90.3191C666.525 91.5343 665.92 92.5629 665.133 93.4207C664.355 94.2767 663.406 94.9401 662.299 95.4168C661.195 95.8935 659.976 96.1302 658.642 96.1302C657.311 96.1302 656.1 95.8935 655.013 95.4168C653.913 94.9401 652.976 94.2767 652.198 93.4207C651.409 92.5629 650.796 91.5343 650.357 90.3191C649.917 89.1093 649.698 87.7651 649.698 86.2944C649.698 84.8215 649.917 83.4811 650.357 82.2867C650.795 81.083 651.416 80.0582 652.21 79.2022C653.008 78.3428 653.953 77.6832 655.049 77.2236C656.138 76.7601 657.335 76.5273 658.642 76.5273C659.954 76.5273 661.154 76.7601 662.262 77.2236C663.368 77.6832 664.312 78.3428 665.094 79.2022C665.877 80.0582 666.496 81.0826 666.933 82.2867C667.371 83.4811 667.59 84.8211 667.59 86.2944Z" fill="black"/>
<path d="M678.534 95.9859C677.249 95.9624 676.19 95.8184 675.341 95.5626C674.499 95.2956 673.828 94.9244 673.327 94.4378C672.83 93.9475 672.48 93.3435 672.276 92.6164C672.078 91.8937 671.975 91.0688 671.975 90.1419V71.9316L676.288 71.2183V89.3247C676.288 89.8459 676.334 90.2859 676.413 90.6417C676.495 90.9975 676.643 91.2995 676.859 91.5494C677.076 91.7976 677.363 91.9877 677.734 92.1205C678.098 92.2534 678.564 92.3512 679.139 92.4263L678.534 95.9859Z" fill="black"/>
<path d="M687.301 92.5302C688.443 92.5302 689.273 92.394 689.795 92.1206C690.316 91.8455 690.579 91.3765 690.579 90.7148C690.579 90.0958 690.303 89.5824 689.743 89.1822C689.185 88.7768 688.258 88.3381 686.979 87.8631C686.195 87.5765 685.475 87.2727 684.824 86.9515C684.166 86.6303 683.607 86.2612 683.13 85.8285C682.649 85.4056 682.278 84.8845 682.009 84.2805C681.736 83.6709 681.599 82.9289 681.599 82.052C681.599 80.3404 682.226 78.9944 683.485 78.0098C684.749 77.023 686.458 76.5254 688.616 76.5254C689.712 76.5254 690.758 76.6288 691.76 76.8291C692.756 77.0329 693.504 77.2306 694.006 77.4194L693.215 80.9115C692.738 80.6962 692.135 80.5001 691.404 80.325C690.662 80.1443 689.806 80.058 688.833 80.058C687.958 80.058 687.24 80.2058 686.692 80.5001C686.149 80.7978 685.877 81.2558 685.877 81.873C685.877 82.1827 685.931 82.4556 686.033 82.694C686.143 82.9289 686.322 83.1498 686.589 83.3535C686.845 83.5556 687.194 83.7576 687.617 83.9575C688.05 84.163 688.573 84.3672 689.187 84.5846C690.213 84.9652 691.075 85.3343 691.794 85.7076C692.505 86.0746 693.09 86.4902 693.561 86.9515C694.021 87.4171 694.359 87.9455 694.573 88.538C694.782 89.136 694.892 89.846 694.892 90.6785C694.892 92.4589 694.234 93.8049 692.911 94.7203C691.596 95.6374 689.711 96.0953 687.26 96.0953C685.627 96.0953 684.31 95.9531 683.312 95.6818C682.312 95.4106 681.608 95.1897 681.208 95.0223L681.954 91.4243C682.598 91.6857 683.366 91.936 684.246 92.1727C685.141 92.4132 686.155 92.5302 687.301 92.5302Z" fill="black"/>
<path d="M703.228 84.26C703.778 83.6944 704.357 83.081 704.979 82.4274C705.596 81.7717 706.205 81.1216 706.798 80.4676C707.386 79.8119 707.953 79.1832 708.492 78.5774C709.023 77.9739 709.482 77.4429 709.861 76.9931H714.955C713.772 78.3194 712.526 79.6983 711.211 81.1293C709.896 82.5522 708.567 83.9447 707.24 85.2984C707.953 85.8887 708.705 86.6076 709.482 87.4521C710.265 88.2945 711.026 89.1924 711.763 90.1424C712.495 91.0958 713.186 92.042 713.82 92.9941C714.464 93.9462 714.991 94.8228 715.424 95.6284H710.428C710.003 94.8937 709.512 94.1231 708.953 93.3153C708.395 92.5076 707.796 91.7229 707.152 90.9595C706.509 90.2022 705.856 89.4846 705.194 88.8079C704.525 88.127 703.879 87.5559 703.228 87.0771V95.6284H698.915V71.9321L703.228 71.2188V84.26Z" fill="black"/>
<path d="M725.115 92.6033C726.443 92.6033 727.447 92.5303 728.147 92.3898V87.6154C727.903 87.5381 727.563 87.4689 727.107 87.398C726.653 87.3266 726.157 87.2882 725.607 87.2882C725.134 87.2882 724.657 87.3266 724.173 87.398C723.681 87.4689 723.244 87.5979 722.844 87.788C722.454 87.9802 722.144 88.2497 721.902 88.5902C721.665 88.9379 721.546 89.3689 721.546 89.8917C721.546 90.9131 721.869 91.6209 722.515 92.013C723.148 92.4051 724.021 92.6033 725.115 92.6033ZM724.757 76.5259C726.184 76.5259 727.38 76.7083 728.357 77.0641C729.331 77.4199 730.107 77.9201 730.689 78.5583C731.27 79.2025 731.687 79.9773 731.939 80.8949C732.19 81.8082 732.316 82.812 732.316 83.9059V95.2052C731.653 95.3453 730.645 95.5204 729.301 95.7203C727.953 95.9224 726.444 96.0245 724.757 96.0245C723.645 96.0245 722.621 95.9168 721.69 95.7054C720.767 95.4897 719.972 95.1441 719.321 94.6665C718.671 94.1898 718.155 93.5764 717.79 92.8131C717.419 92.0553 717.24 91.1185 717.24 89.9977C717.24 88.9323 717.446 88.0306 717.859 87.2882C718.275 86.5556 718.844 85.9576 719.555 85.492C720.265 85.0247 721.09 84.6962 722.03 84.4963C722.972 84.2904 723.944 84.1921 724.966 84.1921C725.44 84.1921 725.941 84.219 726.466 84.2806C726.988 84.3365 727.545 84.4382 728.147 84.5847V83.8692C728.147 83.3673 728.086 82.8944 727.962 82.4463C727.844 81.9905 727.639 81.5984 727.342 81.2499C727.04 80.9098 726.653 80.6364 726.163 80.4464C725.676 80.258 725.067 80.1636 724.328 80.1636C723.332 80.1636 722.419 80.2366 721.582 80.3789C720.751 80.5173 720.078 80.6869 719.555 80.8769L719.017 77.3828C719.565 77.1948 720.361 77.0022 721.409 76.8138C722.454 76.6258 723.567 76.5259 724.757 76.5259Z" fill="black"/>
<path d="M596.845 17.0005H450.003V66.0065H596.845V17.0005Z" fill="white"/>
<path d="M596.844 66.0063H450V115H596.844V66.0063Z" fill="#B72232"/>
<path d="M450.459 17.4635H596.384V114.537H450.459V17.4635ZM450 115H596.844V17H450V115Z" fill="#808285"/>
<path d="M1461 17H1314V115H1461V17Z" fill="#034EA2"/>
<path d="M1384.36 38.3593L1387.47 36.0937L1390.57 38.3593L1389.39 34.6978L1392.54 32.4357H1388.66L1387.47 28.7295L1386.29 32.4357H1382.39L1385.54 34.6978L1384.36 38.3593Z" fill="#FFF200"/>
<path d="M1368.31 42.665L1371.42 40.4L1374.52 42.665L1373.33 39.0085L1376.49 36.7424H1372.6L1371.41 33.0278L1370.22 36.7518L1366.35 36.7424L1369.49 39.0085L1368.31 42.665Z" fill="#FFF200"/>
<path d="M1359.66 44.8057L1358.48 48.5232L1354.59 48.5149L1357.74 50.7799L1356.56 54.4394L1359.66 52.1827L1362.77 54.4394L1361.59 50.7799L1364.74 48.5149H1360.86L1359.66 44.8057Z" fill="#FFF200"/>
<path d="M1355.36 68.1958L1358.45 70.4717L1357.28 66.8102L1360.43 64.5481H1356.55L1355.36 60.8335L1354.16 64.5565L1350.28 64.5481L1353.43 66.8102L1352.25 70.4717L1355.36 68.1958Z" fill="#FFF200"/>
<path d="M1360.86 80.6237L1359.66 76.9204L1358.48 80.6237H1354.59L1357.74 82.8996L1356.56 86.5492L1359.66 84.2822L1362.77 86.5492L1361.59 82.8996L1364.74 80.6237H1360.86Z" fill="#FFF200"/>
<path d="M1372.62 92.3932L1371.43 88.6909L1370.24 92.4035L1366.35 92.3932L1369.51 94.6593L1368.33 98.3168L1371.43 96.0512L1374.54 98.3168L1373.36 94.6593L1376.51 92.3932H1372.62Z" fill="#FFF200"/>
<path d="M1388.65 96.6565L1387.47 92.9414L1386.28 96.6565H1382.39L1385.55 98.9152L1384.36 102.579L1387.47 100.314L1390.58 102.579L1389.38 98.9152L1392.55 96.6565H1388.65Z" fill="#FFF200"/>
<path d="M1404.69 92.3932L1403.49 88.6909L1402.3 92.4035L1398.43 92.3932L1401.57 94.6593L1400.39 98.3168L1403.49 96.0512L1406.6 98.3168L1405.42 94.6593L1408.59 92.3932H1404.69Z" fill="#FFF200"/>
<path d="M1416.46 80.6237L1415.27 76.9204L1414.08 80.6237H1410.2L1413.35 82.8996L1412.16 86.5492L1415.27 84.2822L1418.38 86.5492L1417.19 82.8996L1420.35 80.6237H1416.46Z" fill="#FFF200"/>
<path d="M1424.6 64.5037H1420.71L1419.54 60.7891L1418.34 64.5037H1414.47L1417.62 66.7682L1416.42 70.4268L1419.54 68.1602L1422.64 70.4268L1421.46 66.7682L1424.6 64.5037Z" fill="#FFF200"/>
<path d="M1412.16 54.3842L1415.27 52.131L1418.38 54.3842L1417.19 50.7267L1420.35 48.4729H1416.46L1415.27 44.7515L1414.09 48.4828L1410.21 48.4729L1413.35 50.7267L1412.16 54.3842Z" fill="#FFF200"/>
<path d="M1403.54 33.0293L1402.37 36.7537L1398.47 36.7429L1401.63 39.009L1400.45 42.6753L1403.56 40.398L1406.65 42.6753L1405.47 39.009L1408.62 36.7429H1404.74L1403.54 33.0293Z" fill="#FFF200"/>
<path d="M973 95.0911V78.918H982.873V80.8549H975.266V85.663H982.033V87.5537H975.266V93.1536H983.457V95.0911H973Z" fill="black"/>
<path d="M995.289 94.4849C994.791 94.6089 994.133 94.7407 993.316 94.8799C992.5 95.022 991.555 95.0914 990.481 95.0914C989.549 95.0914 988.761 94.9551 988.125 94.6821C987.485 94.4111 986.972 94.026 986.583 93.5272C986.194 93.0295 985.915 92.4417 985.744 91.7654C985.572 91.0881 985.486 90.338 985.486 89.5126V82.6978H987.657V89.0458C987.657 90.5254 987.891 91.5839 988.358 92.2198C988.825 92.8588 989.611 93.1756 990.715 93.1756C990.949 93.1756 991.189 93.1706 991.437 93.1534C991.687 93.1401 991.92 93.12 992.139 93.0949C992.357 93.0718 992.554 93.0496 992.734 93.0255C992.911 93.0024 993.04 92.9744 993.12 92.9439V82.6973H995.289V94.4849Z" fill="black"/>
<path d="M1003.39 82.6973C1003.58 82.6973 1003.79 82.7086 1004.03 82.7317C1004.27 82.7558 1004.51 82.7873 1004.74 82.8266C1004.97 82.866 1005.19 82.9024 1005.38 82.9437C1005.58 82.9811 1005.72 83.0175 1005.82 83.0485L1005.44 84.9382C1005.27 84.8777 1004.99 84.802 1004.59 84.7174C1004.19 84.6318 1003.68 84.5875 1003.06 84.5875C1002.66 84.5875 1002.26 84.6318 1001.86 84.7174C1001.46 84.802 1001.2 84.8605 1001.08 84.892V95.0904H998.908V83.468C999.421 83.2806 1000.06 83.105 1000.82 82.9437C1001.58 82.7789 1002.44 82.6973 1003.39 82.6973Z" fill="black"/>
<path d="M1018.51 88.7428C1018.51 89.7083 1018.37 90.5784 1018.09 91.3566C1017.81 92.1347 1017.42 92.8041 1016.91 93.3644C1016.41 93.9246 1015.8 94.355 1015.1 94.6585C1014.4 94.962 1013.64 95.1139 1012.82 95.1139C1011.99 95.1139 1011.23 94.962 1010.53 94.6585C1009.83 94.355 1009.23 93.9246 1008.72 93.3644C1008.22 92.8041 1007.82 92.1347 1007.54 91.3566C1007.26 90.5784 1007.12 89.7078 1007.12 88.7428C1007.12 87.7944 1007.26 86.9263 1007.54 86.1413C1007.82 85.3562 1008.22 84.6819 1008.72 84.1222C1009.23 83.5609 1009.83 83.1305 1010.53 82.8271C1011.23 82.5226 1011.99 82.3706 1012.82 82.3706C1013.64 82.3706 1014.4 82.5226 1015.1 82.8271C1015.8 83.1305 1016.41 83.5609 1016.91 84.1222C1017.42 84.6824 1017.81 85.3567 1018.09 86.1413C1018.37 86.9263 1018.51 87.7944 1018.51 88.7428ZM1016.25 88.7428C1016.25 87.3739 1015.94 86.2893 1015.33 85.4871C1014.71 84.6868 1013.87 84.2845 1012.82 84.2845C1011.76 84.2845 1010.92 84.6868 1010.31 85.4871C1009.69 86.2893 1009.39 87.3739 1009.39 88.7428C1009.39 90.1116 1009.69 91.1972 1010.31 91.9994C1010.92 92.7987 1011.76 93.2001 1012.82 93.2001C1013.87 93.2001 1014.71 92.7987 1015.33 91.9994C1015.94 91.1972 1016.25 90.1116 1016.25 88.7428Z" fill="black"/>
<path d="M1032.14 89.0453C1032.14 89.9656 1032.02 90.8121 1031.78 91.5893C1031.54 92.3684 1031.18 93.0378 1030.72 93.5981C1030.25 94.1563 1029.68 94.5941 1029 94.9035C1028.33 95.2158 1027.55 95.3703 1026.68 95.3703C1025.98 95.3703 1025.36 95.2778 1024.82 95.0909C1024.29 94.9035 1023.89 94.7259 1023.62 94.5547V99.408H1021.45V83.3283C1021.97 83.2034 1022.61 83.0691 1023.38 82.9191C1024.15 82.773 1025.04 82.6973 1026.05 82.6973C1026.98 82.6973 1027.82 82.8463 1028.57 83.1419C1029.32 83.438 1029.96 83.8556 1030.49 84.4026C1031.01 84.9456 1031.42 85.6131 1031.71 86.3981C1032 87.1826 1032.14 88.0665 1032.14 89.0453ZM1029.88 89.0453C1029.88 87.6302 1029.53 86.5407 1028.83 85.7778C1028.13 85.0159 1027.19 84.6357 1026.03 84.6357C1025.37 84.6357 1024.86 84.6588 1024.5 84.7031C1024.13 84.7513 1023.84 84.8079 1023.62 84.8684V92.5233C1023.89 92.7412 1024.27 92.9527 1024.77 93.1534C1025.27 93.3561 1025.81 93.4569 1026.4 93.4569C1027.02 93.4569 1027.56 93.3452 1028 93.1195C1028.44 92.8927 1028.8 92.5824 1029.08 92.1849C1029.36 91.789 1029.57 91.3212 1029.69 90.7841C1029.81 90.2484 1029.88 89.669 1029.88 89.0453Z" fill="black"/>
<path d="M1034.4 88.7669C1034.4 87.6926 1034.56 86.7551 1034.87 85.9529C1035.18 85.1536 1035.59 84.4871 1036.11 83.9574C1036.62 83.4291 1037.21 83.0332 1037.88 82.7671C1038.55 82.5029 1039.23 82.3701 1039.94 82.3701C1041.57 82.3701 1042.82 82.8792 1043.69 83.8993C1044.56 84.9175 1045 86.4703 1045 88.5549C1045 88.6478 1045 88.7703 1045 88.9179C1045 89.065 1044.99 89.2002 1044.98 89.3261H1036.67C1036.76 90.5868 1037.13 91.5435 1037.77 92.1957C1038.4 92.8489 1039.4 93.1745 1040.75 93.1745C1041.51 93.1745 1042.15 93.1101 1042.68 92.9787C1043.2 92.8459 1043.59 92.7166 1043.86 92.5926L1044.16 94.413C1043.89 94.5542 1043.43 94.7003 1042.77 94.8557C1042.11 95.0121 1041.36 95.0903 1040.52 95.0903C1039.46 95.0903 1038.55 94.931 1037.78 94.6098C1037.01 94.292 1036.37 93.8528 1035.87 93.2926C1035.38 92.7323 1035.01 92.0688 1034.77 91.2971C1034.52 90.5278 1034.4 89.6842 1034.4 88.7669ZM1042.74 87.5765C1042.75 86.5938 1042.51 85.7896 1042 85.1605C1041.49 84.5304 1040.8 84.2141 1039.91 84.2141C1039.41 84.2141 1038.98 84.312 1038.59 84.5063C1038.21 84.7021 1037.89 84.9539 1037.63 85.2662C1037.36 85.5756 1037.15 85.9337 1037.01 86.3385C1036.86 86.7438 1036.76 87.156 1036.72 87.577H1042.74V87.5765Z" fill="black"/>
<path d="M1046.03 99.4569C1045.84 99.4569 1045.6 99.4318 1045.3 99.3866C1045.01 99.3384 1044.76 99.2769 1044.56 99.1992L1044.84 97.425C1044.99 97.4722 1045.17 97.5096 1045.37 97.5411C1045.58 97.5726 1045.76 97.5883 1045.93 97.5883C1046.68 97.5883 1047.21 97.3576 1047.53 96.8997C1047.85 96.4403 1048.01 95.7679 1048.01 94.8806V82.9557H1050.18V94.8575C1050.18 96.4128 1049.83 97.5686 1049.12 98.3237C1048.41 99.0806 1047.38 99.4569 1046.03 99.4569ZM1049.08 80.7625C1048.7 80.7625 1048.36 80.6336 1048.09 80.3773C1047.82 80.1211 1047.68 79.7748 1047.68 79.339C1047.68 78.9032 1047.82 78.5559 1048.09 78.3007C1048.36 78.0424 1048.7 77.9155 1049.08 77.9155C1049.47 77.9155 1049.8 78.0424 1050.08 78.3007C1050.35 78.5564 1050.48 78.9032 1050.48 79.339C1050.48 79.7748 1050.35 80.1211 1050.08 80.3773C1049.8 80.6336 1049.47 80.7625 1049.08 80.7625Z" fill="black"/>
<path d="M1056.62 93.2463C1057.51 93.2463 1058.17 93.1312 1058.59 92.8956C1059.02 92.663 1059.24 92.2896 1059.24 91.7766C1059.24 91.2483 1059.03 90.8263 1058.61 90.516C1058.19 90.2046 1057.49 89.8549 1056.53 89.4668C1056.06 89.2794 1055.61 89.0876 1055.19 88.8933C1054.76 88.699 1054.39 88.4708 1054.08 88.2066C1053.77 87.9415 1053.52 87.6223 1053.33 87.2509C1053.14 86.8751 1053.05 86.4152 1053.05 85.8712C1053.05 84.799 1053.45 83.9461 1054.24 83.316C1055.04 82.6859 1056.12 82.3706 1057.48 82.3706C1057.83 82.3706 1058.17 82.3908 1058.51 82.4301C1058.85 82.4695 1059.17 82.5147 1059.47 82.5703C1059.76 82.6239 1060.03 82.6834 1060.25 82.7449C1060.48 82.8064 1060.65 82.859 1060.78 82.9082L1060.38 84.7768C1060.15 84.6509 1059.78 84.5211 1059.28 84.3897C1058.78 84.2589 1058.19 84.191 1057.48 84.191C1056.88 84.191 1056.35 84.312 1055.9 84.555C1055.45 84.7931 1055.22 85.1718 1055.22 85.6858C1055.22 85.9499 1055.27 86.1836 1055.38 86.3862C1055.47 86.5869 1055.63 86.7714 1055.84 86.9337C1056.05 87.098 1056.31 87.2509 1056.62 87.3882C1056.93 87.5283 1057.31 87.6764 1057.74 87.8318C1058.32 88.0507 1058.83 88.2642 1059.28 88.4737C1059.73 88.6852 1060.12 88.9292 1060.44 89.2095C1060.76 89.4899 1061 89.8273 1061.17 90.2243C1061.34 90.6212 1061.43 91.1082 1061.43 91.6846C1061.43 92.8046 1061.01 93.6521 1060.18 94.2266C1059.35 94.8031 1058.16 95.0913 1056.62 95.0913C1055.55 95.0913 1054.71 95.0008 1054.1 94.8223C1053.5 94.6447 1053.08 94.507 1052.86 94.414L1053.26 92.5484C1053.51 92.6413 1053.91 92.78 1054.45 92.9684C1055 93.1534 1055.72 93.2463 1056.62 93.2463Z" fill="black"/>
<path d="M1068.48 88.415C1068.95 88.7735 1069.44 89.2172 1069.96 89.7455C1070.48 90.2747 1071 90.8473 1071.5 91.4621C1072.01 92.0769 1072.49 92.6977 1072.94 93.3278C1073.39 93.9588 1073.77 94.5461 1074.08 95.0906H1071.54C1071.21 94.5461 1070.83 93.9908 1070.4 93.4217C1069.98 92.8541 1069.53 92.3081 1069.06 91.7887C1068.59 91.2668 1068.12 90.7877 1067.64 90.3534C1067.16 89.9171 1066.7 89.5512 1066.26 89.2556V95.0906H1064.09V77.3518L1066.26 76.979V88.0421C1066.64 87.6683 1067.05 87.2561 1067.5 86.8056C1067.95 86.353 1068.39 85.8956 1068.83 85.4259C1069.26 84.962 1069.68 84.514 1070.07 84.0865C1070.45 83.6591 1070.79 83.2803 1071.07 82.9537H1073.61C1073.25 83.3438 1072.87 83.7702 1072.45 84.238C1072.03 84.7018 1071.59 85.1745 1071.14 85.6492C1070.69 86.1238 1070.23 86.5995 1069.77 87.0731C1069.31 87.5473 1068.88 87.9954 1068.48 88.415Z" fill="black"/>
<path d="M1077.23 80.7625C1076.84 80.7625 1076.51 80.6336 1076.24 80.3773C1075.97 80.1211 1075.83 79.7748 1075.83 79.339C1075.83 78.9032 1075.97 78.5559 1076.24 78.3007C1076.51 78.0424 1076.84 77.9155 1077.23 77.9155C1077.62 77.9155 1077.95 78.0424 1078.22 78.3007C1078.5 78.5564 1078.63 78.9032 1078.63 79.339C1078.63 79.7748 1078.5 80.1211 1078.22 80.3773C1077.95 80.6336 1077.62 80.7625 1077.23 80.7625ZM1078.33 95.0916H1076.16V82.9552H1078.33V95.0916Z" fill="black"/>
<path d="M1087.36 95.0906V78.9175H1097.11V80.8545H1089.62V85.7328H1096.27V87.6437H1089.62V95.0911H1087.36V95.0906Z" fill="black"/>
<path d="M1108.71 94.4849C1108.22 94.6089 1107.56 94.7407 1106.74 94.8799C1105.92 95.022 1104.98 95.0914 1103.9 95.0914C1102.97 95.0914 1102.19 94.9551 1101.55 94.6821C1100.91 94.4111 1100.4 94.026 1100.01 93.5272C1099.62 93.0295 1099.34 92.4417 1099.17 91.7654C1099 91.0881 1098.91 90.338 1098.91 89.5126V82.6978H1101.08V89.0458C1101.08 90.5254 1101.32 91.5839 1101.78 92.2198C1102.25 92.8588 1103.03 93.1756 1104.14 93.1756C1104.37 93.1756 1104.61 93.1706 1104.86 93.1534C1105.11 93.1401 1105.35 93.12 1105.56 93.0949C1105.78 93.0718 1105.98 93.0496 1106.16 93.0255C1106.34 93.0024 1106.47 92.9744 1106.54 92.9439V82.6973H1108.71V94.4849Z" fill="black"/>
<path d="M1112.33 83.3042C1112.83 83.1813 1113.49 83.0485 1114.32 82.9083C1115.14 82.7671 1116.09 82.6968 1117.16 82.6968C1118.13 82.6968 1118.93 82.834 1119.57 83.105C1120.21 83.378 1120.71 83.7592 1121.09 84.2501C1121.48 84.739 1121.74 85.3278 1121.9 86.012C1122.06 86.6971 1122.13 87.4522 1122.13 88.2765V95.0909H1119.96V88.7428C1119.96 87.9952 1119.91 87.3568 1119.81 86.828C1119.71 86.2987 1119.54 85.8713 1119.31 85.5447C1119.08 85.2181 1118.76 84.9815 1118.38 84.833C1117.99 84.6869 1117.5 84.6121 1116.93 84.6121C1116.7 84.6121 1116.45 84.621 1116.21 84.6362C1115.96 84.6515 1115.72 84.6697 1115.49 84.6918C1115.27 84.7179 1115.06 84.743 1114.89 84.7774C1114.71 84.8084 1114.58 84.83 1114.5 84.8448V95.0914H1112.33V83.3042H1112.33Z" fill="black"/>
<path d="M1133.45 77.0725L1135.62 76.7017V94.4606C1135.12 94.6008 1134.49 94.74 1133.71 94.8797C1132.93 95.0218 1132.04 95.0912 1131.02 95.0912C1130.09 95.0912 1129.25 94.9431 1128.5 94.6475C1127.76 94.3514 1127.12 93.9338 1126.59 93.3868C1126.06 92.8423 1125.65 92.1764 1125.36 91.3923C1125.08 90.6063 1124.93 89.7224 1124.93 88.7426C1124.93 87.81 1125.05 86.9547 1125.29 86.1746C1125.54 85.3974 1125.89 84.729 1126.36 84.1687C1126.82 83.6085 1127.39 83.1727 1128.07 82.8594C1128.75 82.551 1129.52 82.3926 1130.39 82.3926C1131.09 82.3926 1131.71 82.4885 1132.25 82.6749C1132.79 82.8594 1133.19 83.0399 1133.45 83.212V77.0725H1133.45ZM1133.45 85.241C1133.19 85.0251 1132.81 84.8136 1132.31 84.6119C1131.81 84.4102 1131.27 84.3084 1130.67 84.3084C1130.05 84.3084 1129.52 84.4215 1129.08 84.6473C1128.63 84.8721 1128.27 85.1815 1127.99 85.5799C1127.71 85.9768 1127.51 86.4475 1127.38 86.9901C1127.26 87.5365 1127.2 88.1189 1127.2 88.7426C1127.2 90.1587 1127.55 91.2511 1128.25 92.0224C1128.95 92.7912 1129.88 93.1753 1131.05 93.1753C1131.64 93.1753 1132.13 93.1503 1132.53 93.0947C1132.93 93.0411 1133.23 92.983 1133.45 92.9201V85.241H1133.45Z" fill="black"/>
<path d="M1148.9 94.4849C1148.4 94.6089 1147.75 94.7407 1146.93 94.8799C1146.12 95.022 1145.17 95.0914 1144.09 95.0914C1143.16 95.0914 1142.37 94.9551 1141.74 94.6821C1141.1 94.4111 1140.58 94.026 1140.2 93.5272C1139.81 93.0295 1139.53 92.4417 1139.36 91.7654C1139.18 91.0881 1139.1 90.338 1139.1 89.5126V82.6978H1141.27V89.0458C1141.27 90.5254 1141.5 91.5839 1141.97 92.2198C1142.44 92.8588 1143.22 93.1756 1144.33 93.1756C1144.56 93.1756 1144.8 93.1706 1145.05 93.1534C1145.3 93.1401 1145.53 93.12 1145.75 93.0949C1145.97 93.0718 1146.17 93.0496 1146.35 93.0255C1146.53 93.0024 1146.66 92.9744 1146.73 92.9439V82.6973H1148.9V94.4849Z" fill="black"/>
<path d="M1155.34 93.2463C1156.23 93.2463 1156.89 93.1312 1157.32 92.8956C1157.74 92.663 1157.96 92.2896 1157.96 91.7766C1157.96 91.2483 1157.75 90.8263 1157.33 90.516C1156.91 90.2046 1156.22 89.8549 1155.25 89.4668C1154.78 89.2794 1154.34 89.0876 1153.91 88.8933C1153.48 88.699 1153.11 88.4708 1152.8 88.2066C1152.49 87.9415 1152.24 87.6223 1152.05 87.2509C1151.87 86.8751 1151.77 86.4152 1151.77 85.8712C1151.77 84.799 1152.17 83.9461 1152.96 83.316C1153.76 82.6859 1154.84 82.3706 1156.21 82.3706C1156.55 82.3706 1156.89 82.3908 1157.24 82.4301C1157.58 82.4695 1157.9 82.5147 1158.19 82.5703C1158.49 82.6239 1158.75 82.6834 1158.97 82.7449C1159.2 82.8064 1159.37 82.859 1159.5 82.9082L1159.1 84.7768C1158.87 84.6509 1158.5 84.5211 1158 84.3897C1157.5 84.2589 1156.91 84.191 1156.21 84.191C1155.6 84.191 1155.07 84.312 1154.62 84.555C1154.17 84.7931 1153.94 85.1718 1153.94 85.6858C1153.94 85.9499 1153.99 86.1836 1154.09 86.3862C1154.2 86.5869 1154.35 86.7714 1154.56 86.9337C1154.77 87.098 1155.03 87.2509 1155.34 87.3882C1155.66 87.5283 1156.03 87.6764 1156.46 87.8318C1157.04 88.0507 1157.55 88.2642 1158 88.4737C1158.46 88.6852 1158.84 88.9292 1159.16 89.2095C1159.48 89.4899 1159.72 89.8273 1159.89 90.2243C1160.07 90.6212 1160.15 91.1082 1160.15 91.6846C1160.15 92.8046 1159.73 93.6521 1158.9 94.2266C1158.07 94.8031 1156.88 95.0913 1155.34 95.0913C1154.27 95.0913 1153.43 95.0008 1152.82 94.8223C1152.22 94.6447 1151.8 94.507 1151.59 94.414L1151.98 92.5484C1152.23 92.6413 1152.63 92.78 1153.17 92.9684C1153.72 93.1534 1154.44 93.2463 1155.34 93.2463Z" fill="black"/>
<path d="M1170.86 84.5881C1170.54 84.9457 1170.1 85.4518 1169.57 86.107C1169.03 86.7592 1168.46 87.4827 1167.84 88.2771C1167.23 89.0695 1166.61 89.9017 1166 90.7728C1165.38 91.6449 1164.84 92.4781 1164.38 93.2696H1171.05V95.091H1161.78V93.6434C1162.16 92.9592 1162.62 92.2052 1163.16 91.3808C1163.71 90.5544 1164.28 89.734 1164.88 88.9185C1165.48 88.101 1166.06 87.3312 1166.63 86.6072C1167.2 85.8832 1167.69 85.2747 1168.11 84.777H1162.11V82.9546H1170.86V84.5881Z" fill="black"/>
<path d="M1182.86 93.1319C1185.23 93.1319 1186.41 92.3213 1186.41 90.7031C1186.41 90.2053 1186.3 89.7818 1186.09 89.4311C1185.88 89.0824 1185.6 88.7779 1185.24 88.5221C1184.88 88.2649 1184.47 88.0425 1184.02 87.8556C1183.56 87.6692 1183.07 87.4828 1182.56 87.2964C1181.97 87.0947 1181.41 86.865 1180.88 86.6078C1180.35 86.3505 1179.89 86.0475 1179.5 85.6978C1179.11 85.3471 1178.8 84.932 1178.58 84.449C1178.35 83.9669 1178.24 83.3816 1178.24 82.6974C1178.24 81.2813 1178.72 80.1776 1179.69 79.3842C1180.65 78.5908 1181.98 78.1929 1183.68 78.1929C1184.66 78.1929 1185.55 78.2996 1186.35 78.5082C1187.15 78.7187 1187.74 78.9499 1188.11 79.1978L1187.39 81.0423C1187.06 80.8386 1186.57 80.6409 1185.93 80.4466C1185.28 80.2523 1184.53 80.1535 1183.68 80.1535C1183.24 80.1535 1182.84 80.2017 1182.46 80.2927C1182.09 80.3876 1181.76 80.5283 1181.48 80.7132C1181.2 80.9016 1180.98 81.1377 1180.82 81.4269C1180.65 81.7151 1180.57 82.0521 1180.57 82.4416C1180.57 82.876 1180.66 83.2429 1180.83 83.5385C1181 83.8336 1181.24 84.0948 1181.55 84.3206C1181.86 84.5463 1182.23 84.751 1182.64 84.9384C1183.05 85.1258 1183.5 85.3132 1184 85.4986C1184.7 85.778 1185.34 86.0579 1185.93 86.3382C1186.51 86.6196 1187.02 86.955 1187.45 87.3431C1187.87 87.7312 1188.2 88.194 1188.44 88.7312C1188.67 89.2673 1188.79 89.9176 1188.79 90.6785C1188.79 92.0956 1188.27 93.1841 1187.24 93.9469C1186.2 94.7088 1184.74 95.091 1182.86 95.091C1182.22 95.091 1181.64 95.0487 1181.1 94.9622C1180.56 94.8766 1180.08 94.7757 1179.66 94.6587C1179.24 94.5436 1178.88 94.4186 1178.58 94.2849C1178.27 94.153 1178.04 94.0399 1177.87 93.9464L1178.54 92.0808C1178.9 92.2834 1179.44 92.5082 1180.18 92.7561C1180.91 93.008 1181.8 93.1319 1182.86 93.1319Z" fill="black"/>
<path d="M1201.95 89.0453C1201.95 89.9656 1201.83 90.8121 1201.59 91.5893C1201.35 92.3684 1200.99 93.0378 1200.53 93.5981C1200.06 94.1563 1199.49 94.5941 1198.81 94.9035C1198.14 95.2158 1197.36 95.3703 1196.49 95.3703C1195.79 95.3703 1195.17 95.2778 1194.63 95.0909C1194.1 94.9035 1193.7 94.7259 1193.43 94.5547V99.408H1191.26V83.3283C1191.77 83.2034 1192.42 83.0691 1193.19 82.9191C1193.96 82.773 1194.85 82.6973 1195.86 82.6973C1196.79 82.6973 1197.63 82.8463 1198.38 83.1419C1199.13 83.438 1199.77 83.8556 1200.3 84.4026C1200.82 84.9456 1201.23 85.6131 1201.52 86.3981C1201.81 87.1826 1201.95 88.0665 1201.95 89.0453ZM1199.69 89.0453C1199.69 87.6302 1199.34 86.5407 1198.64 85.7778C1197.94 85.0159 1197 84.6357 1195.84 84.6357C1195.18 84.6357 1194.67 84.6588 1194.31 84.7031C1193.94 84.7513 1193.65 84.8079 1193.43 84.8684V92.5233C1193.7 92.7412 1194.08 92.9527 1194.58 93.1534C1195.07 93.3561 1195.62 93.4569 1196.21 93.4569C1196.83 93.4569 1197.37 93.3452 1197.81 93.1195C1198.25 92.8927 1198.61 92.5824 1198.89 92.1849C1199.17 91.789 1199.38 91.3212 1199.5 90.7841C1199.62 90.2484 1199.69 89.669 1199.69 89.0453Z" fill="black"/>
<path d="M1215.61 88.7428C1215.61 89.7083 1215.46 90.5784 1215.19 91.3566C1214.9 92.1347 1214.51 92.8041 1214.01 93.3644C1213.5 93.9246 1212.9 94.355 1212.2 94.6585C1211.5 94.962 1210.73 95.1139 1209.91 95.1139C1209.08 95.1139 1208.32 94.962 1207.62 94.6585C1206.92 94.355 1206.32 93.9246 1205.81 93.3644C1205.31 92.8041 1204.91 92.1347 1204.64 91.3566C1204.36 90.5784 1204.21 89.7078 1204.21 88.7428C1204.21 87.7944 1204.36 86.9263 1204.64 86.1413C1204.91 85.3562 1205.31 84.6819 1205.81 84.1222C1206.32 83.5609 1206.92 83.1305 1207.62 82.8271C1208.32 82.5226 1209.09 82.3706 1209.91 82.3706C1210.73 82.3706 1211.5 82.5226 1212.2 82.8271C1212.9 83.1305 1213.5 83.5609 1214.01 84.1222C1214.51 84.6824 1214.9 85.3567 1215.19 86.1413C1215.46 86.9263 1215.61 87.7944 1215.61 88.7428ZM1213.34 88.7428C1213.34 87.3739 1213.03 86.2893 1212.42 85.4871C1211.8 84.6868 1210.97 84.2845 1209.91 84.2845C1208.85 84.2845 1208.02 84.6868 1207.4 85.4871C1206.79 86.2893 1206.48 87.3739 1206.48 88.7428C1206.48 90.1116 1206.79 91.1972 1207.4 91.9994C1208.02 92.7987 1208.85 93.2001 1209.91 93.2001C1210.97 93.2001 1211.8 92.7987 1212.42 91.9994C1213.03 91.1972 1213.34 90.1116 1213.34 88.7428Z" fill="black"/>
<path d="M1222.51 95.3252C1221.17 95.2918 1220.23 95.0045 1219.66 94.4605C1219.1 93.916 1218.82 93.0685 1218.82 91.9166V87.1553L1217.49 87.8316L1216.75 86.386L1218.82 85.3359V77.3518L1221 76.979V84.2139L1222.7 83.328L1223.42 84.7766L1221 86.0353V91.5659C1221 91.9244 1221.03 92.2191 1221.09 92.4537C1221.15 92.6863 1221.25 92.8738 1221.39 93.0139C1221.53 93.1531 1221.72 93.2599 1221.95 93.3282C1222.19 93.3986 1222.47 93.4571 1222.82 93.5038L1222.51 95.3252Z" fill="black"/>
<path d="M1224.45 88.7669C1224.45 87.6926 1224.6 86.7551 1224.92 85.9529C1225.23 85.1536 1225.64 84.4871 1226.15 83.9574C1226.67 83.4291 1227.26 83.0332 1227.93 82.7671C1228.59 82.5029 1229.28 82.3701 1229.98 82.3701C1231.61 82.3701 1232.87 82.8792 1233.74 83.8993C1234.61 84.9175 1235.04 86.4703 1235.04 88.5549C1235.04 88.6478 1235.04 88.7703 1235.04 88.9179C1235.04 89.065 1235.04 89.2002 1235.02 89.3261H1226.71C1226.81 90.5868 1227.17 91.5435 1227.81 92.1957C1228.45 92.8489 1229.44 93.1745 1230.79 93.1745C1231.56 93.1745 1232.2 93.1101 1232.72 92.9787C1233.24 92.8459 1233.63 92.7166 1233.9 92.5926L1234.2 94.413C1233.94 94.5542 1233.48 94.7003 1232.81 94.8557C1232.15 95.0121 1231.4 95.0903 1230.56 95.0903C1229.5 95.0903 1228.59 94.931 1227.82 94.6098C1227.05 94.292 1226.42 93.8528 1225.92 93.2926C1225.42 92.7323 1225.05 92.0688 1224.81 91.2971C1224.57 90.5278 1224.45 89.6842 1224.45 88.7669ZM1232.78 87.5765C1232.8 86.5938 1232.55 85.7896 1232.05 85.1605C1231.54 84.5304 1230.84 84.2141 1229.96 84.2141C1229.46 84.2141 1229.02 84.312 1228.64 84.5063C1228.26 84.7021 1227.93 84.9539 1227.67 85.2662C1227.4 85.5756 1227.2 85.9337 1227.05 86.3385C1226.9 86.7438 1226.81 87.156 1226.76 87.577H1232.78V87.5765Z" fill="black"/>
<path d="M1243.33 95.1138C1242.35 95.1138 1241.49 94.9584 1240.75 94.647C1240.01 94.3347 1239.39 93.9004 1238.88 93.3406C1238.38 92.7794 1238 92.1158 1237.75 91.3451C1237.5 90.5758 1237.38 89.7224 1237.38 88.7888C1237.38 87.8553 1237.51 86.9989 1237.79 86.2228C1238.06 85.4427 1238.44 84.7703 1238.94 84.2041C1239.44 83.6355 1240.05 83.1914 1240.77 82.8726C1241.5 82.5539 1242.3 82.3921 1243.19 82.3921C1243.73 82.3921 1244.28 82.4413 1244.82 82.5342C1245.37 82.6267 1245.89 82.7753 1246.39 82.9769L1245.9 84.8204C1245.57 84.6665 1245.19 84.5411 1244.76 84.4476C1244.34 84.3537 1243.88 84.3074 1243.4 84.3074C1242.19 84.3074 1241.26 84.6886 1240.61 85.4505C1239.96 86.2134 1239.64 87.326 1239.64 88.7879C1239.64 89.442 1239.72 90.0416 1239.86 90.5861C1240.01 91.1292 1240.24 91.5979 1240.56 91.985C1240.88 92.376 1241.29 92.6736 1241.79 92.8841C1242.29 93.0937 1242.89 93.1994 1243.61 93.1994C1244.18 93.1994 1244.71 93.1439 1245.17 93.0371C1245.64 92.9274 1246 92.8094 1246.27 92.6854L1246.57 94.5058C1246.45 94.5845 1246.27 94.6578 1246.04 94.7277C1245.8 94.799 1245.54 94.8605 1245.24 94.9131C1244.95 94.9697 1244.63 95.0169 1244.3 95.0543C1243.96 95.0946 1243.64 95.1138 1243.33 95.1138Z" fill="black"/>
<path d="M1256.84 84.5881C1256.52 84.9457 1256.08 85.4518 1255.55 86.107C1255.01 86.7592 1254.44 87.4827 1253.82 88.2771C1253.2 89.0695 1252.59 89.9017 1251.98 90.7728C1251.36 91.6449 1250.82 92.4781 1250.35 93.2696H1257.03V95.091H1247.76V93.6434C1248.14 92.9592 1248.6 92.2052 1249.14 91.3808C1249.68 90.5544 1250.26 89.734 1250.86 88.9185C1251.45 88.101 1252.04 87.3312 1252.61 86.6072C1253.17 85.8827 1253.67 85.2747 1254.09 84.777H1248.09V82.9546H1256.84V84.5881Z" fill="black"/>
<path d="M1259.67 83.3042C1260.16 83.1813 1260.82 83.0485 1261.65 82.9083C1262.47 82.7671 1263.42 82.6968 1264.5 82.6968C1265.46 82.6968 1266.26 82.834 1266.9 83.105C1267.54 83.378 1268.05 83.7592 1268.43 84.2501C1268.81 84.739 1269.08 85.3278 1269.24 86.012C1269.39 86.6971 1269.47 87.4522 1269.47 88.2765V95.0909H1267.3V88.7428C1267.3 87.9952 1267.25 87.3568 1267.15 86.828C1267.05 86.2987 1266.88 85.8713 1266.64 85.5447C1266.41 85.2181 1266.1 84.9815 1265.71 84.833C1265.32 84.6869 1264.84 84.6121 1264.26 84.6121C1264.03 84.6121 1263.79 84.621 1263.54 84.6362C1263.29 84.6515 1263.05 84.6697 1262.83 84.6918C1262.6 84.7179 1262.4 84.743 1262.22 84.7774C1262.04 84.8084 1261.92 84.83 1261.84 84.8448V95.0914H1259.67V83.3042H1259.67Z" fill="black"/>
<path d="M1271.1 97.3545C1271.27 97.4332 1271.5 97.5065 1271.77 97.5764C1272.04 97.6477 1272.31 97.6831 1272.57 97.6831C1273.43 97.6831 1274.1 97.4888 1274.58 97.1096C1275.06 96.7304 1275.5 96.1077 1275.89 95.2552C1274.91 93.3866 1273.99 91.4078 1273.14 89.3154C1272.3 87.222 1271.59 85.1021 1271.03 82.9546H1273.37C1273.54 83.653 1273.74 84.41 1273.99 85.2182C1274.23 86.0263 1274.49 86.862 1274.79 87.7159C1275.09 88.5727 1275.4 89.4276 1275.75 90.2839C1276.09 91.1388 1276.45 91.9632 1276.82 92.7565C1277.41 91.1245 1277.92 89.5038 1278.36 87.9033C1278.8 86.2988 1279.21 84.6515 1279.6 82.9546H1281.84C1281.28 85.2408 1280.66 87.438 1279.97 89.5466C1279.29 91.6562 1278.55 93.6286 1277.76 95.4633C1277.44 96.1637 1277.12 96.7658 1276.79 97.2724C1276.45 97.7785 1276.08 98.1956 1275.68 98.5213C1275.27 98.8479 1274.82 99.0889 1274.31 99.2448C1273.81 99.3992 1273.23 99.4784 1272.6 99.4784C1272.43 99.4784 1272.25 99.4681 1272.06 99.445C1271.87 99.4199 1271.69 99.3894 1271.51 99.351C1271.33 99.3117 1271.17 99.2694 1271.02 99.2232C1270.87 99.1749 1270.77 99.1356 1270.71 99.1051L1271.1 97.3545Z" fill="black"/>
<path d="M1035.18 62.4659C1033.51 62.4659 1032.07 62.2224 1030.87 61.7394C1029.67 61.2573 1028.67 60.5791 1027.88 59.705C1027.09 58.8339 1026.51 57.8093 1026.13 56.6298C1025.75 55.4503 1025.56 54.1533 1025.56 52.7387V37.4253H1030.06V52.3156C1030.06 53.4214 1030.18 54.3717 1030.43 55.1621C1030.68 55.951 1031.03 56.5924 1031.49 57.0878C1031.95 57.5831 1032.49 57.949 1033.12 58.1856C1033.74 58.4217 1034.44 58.5383 1035.22 58.5383C1036 58.5383 1036.71 58.4222 1037.34 58.1856C1037.98 57.949 1038.53 57.5826 1038.99 57.0878C1039.45 56.5924 1039.8 55.951 1040.05 55.1621C1040.3 54.3717 1040.42 53.4214 1040.42 52.3156V37.4253H1044.91V52.7387C1044.91 54.1533 1044.72 55.4508 1044.33 56.6298C1043.94 57.8088 1043.35 58.8339 1042.56 59.705C1041.77 60.5786 1040.76 61.2568 1039.54 61.7394C1038.31 62.2224 1036.86 62.4659 1035.18 62.4659Z" fill="black"/>
<path d="M1050.18 44.5351C1051.01 44.2995 1052.08 44.0742 1053.4 43.8637C1054.72 43.6497 1056.18 43.5435 1057.78 43.5435C1059.29 43.5435 1060.55 43.7515 1061.57 44.1622C1062.58 44.5759 1063.39 45.1543 1063.99 45.8951C1064.59 46.6383 1065.01 47.536 1065.26 48.5841C1065.51 49.6323 1065.63 50.7828 1065.63 52.0326V62.4298H1061.35V52.705C1061.35 51.7144 1061.29 50.8713 1061.16 50.1748C1061.03 49.4803 1060.82 48.9142 1060.52 48.4769C1060.23 48.0421 1059.83 47.7248 1059.32 47.5217C1058.81 47.3225 1058.19 47.2236 1057.47 47.2236C1056.92 47.2236 1056.36 47.2576 1055.77 47.3294C1055.18 47.3987 1054.74 47.4578 1054.46 47.505V62.4298H1050.18V44.5351H1050.18Z" fill="black"/>
<path d="M1075.43 38.5228C1075.43 39.3221 1075.17 39.9605 1074.65 40.4307C1074.13 40.9034 1073.52 41.1395 1072.81 41.1395C1072.08 41.1395 1071.46 40.9034 1070.94 40.4307C1070.42 39.9605 1070.16 39.3221 1070.16 38.5228C1070.16 37.6984 1070.42 37.0482 1070.94 36.575C1071.46 36.1052 1072.08 35.8687 1072.81 35.8687C1073.52 35.8687 1074.13 36.1048 1074.65 36.575C1075.17 37.0482 1075.43 37.6984 1075.43 38.5228ZM1074.97 62.4291H1070.69V43.9333H1074.97V62.4291Z" fill="black"/>
<path d="M1086.36 43.1191C1087.77 43.1191 1088.96 43.2962 1089.93 43.6494C1090.89 44.004 1091.67 44.4993 1092.25 45.1348C1092.82 45.7728 1093.23 46.545 1093.48 47.451C1093.73 48.3585 1093.85 49.3556 1093.85 50.4391V61.6508C1093.19 61.793 1092.2 61.9646 1090.87 62.1628C1089.54 62.364 1088.03 62.4653 1086.36 62.4653C1085.25 62.4653 1084.24 62.3581 1083.32 62.1461C1082.4 61.9336 1081.61 61.5933 1080.96 61.1206C1080.31 60.6499 1079.81 60.0375 1079.44 59.2834C1079.08 58.5274 1078.9 57.5963 1078.9 56.4877C1078.9 55.4287 1079.1 54.5305 1079.51 53.7986C1079.93 53.0701 1080.49 52.474 1081.19 52.0131C1081.9 51.5547 1082.72 51.2242 1083.65 51.0245C1084.58 50.8248 1085.56 50.723 1086.57 50.723C1087.04 50.723 1087.54 50.7539 1088.06 50.8105C1088.57 50.871 1089.13 50.9713 1089.72 51.1115V50.4047C1089.72 49.9094 1089.66 49.4372 1089.54 48.9901C1089.42 48.5425 1089.22 48.1451 1088.92 47.8052C1088.63 47.4653 1088.24 47.1992 1087.75 47.0089C1087.27 46.8219 1086.66 46.7265 1085.93 46.7265C1084.94 46.7265 1084.03 46.7964 1083.21 46.939C1082.38 47.0797 1081.71 47.2459 1081.19 47.4343L1080.66 43.9691C1081.21 43.7787 1081.99 43.5918 1083.03 43.4025C1084.07 43.2151 1085.18 43.1191 1086.36 43.1191ZM1086.71 59.069C1088.03 59.069 1089.03 58.9982 1089.72 58.856V54.1188C1089.48 54.046 1089.14 53.9752 1088.69 53.9053C1088.24 53.8345 1087.75 53.7976 1087.2 53.7976C1086.73 53.7976 1086.26 53.8345 1085.77 53.9053C1085.29 53.9752 1084.85 54.1045 1084.46 54.2944C1084.08 54.4833 1083.76 54.7494 1083.53 55.0893C1083.29 55.4326 1083.17 55.8615 1083.17 56.3809C1083.17 57.3942 1083.49 58.0946 1084.13 58.4851C1084.76 58.8747 1085.63 59.069 1086.71 59.069Z" fill="black"/>
<path d="M1107.12 62.4293V37.9209H1122.85V41.7053H1111.57V47.7524H1121.62V51.467H1111.57V58.6448H1123.7V62.4293H1107.12Z" fill="black"/>
<path d="M1141.99 61.475C1141.16 61.6861 1140.09 61.9054 1138.77 62.1292C1137.45 62.3525 1136 62.4657 1134.42 62.4657C1132.93 62.4657 1131.69 62.2517 1130.69 61.8277C1129.68 61.4052 1128.88 60.8149 1128.28 60.0599C1127.68 59.3054 1127.25 58.4023 1126.99 57.3541C1126.73 56.306 1126.6 55.1565 1126.6 53.9062V43.543H1130.88V53.2347C1130.88 55.214 1131.17 56.6296 1131.75 57.4791C1132.32 58.3266 1133.33 58.7511 1134.77 58.7511C1135.29 58.7511 1135.84 58.7289 1136.42 58.6797C1136.99 58.6325 1137.42 58.5735 1137.71 58.5037V43.543H1141.99V61.475H1141.99Z" fill="black"/>
<path d="M1157.76 47.7863C1157.41 47.6712 1156.92 47.5473 1156.29 47.4179C1155.67 47.2885 1154.94 47.2231 1154.12 47.2231C1153.64 47.2231 1153.14 47.2699 1152.61 47.3638C1152.08 47.4568 1151.71 47.5409 1151.5 47.6117V62.4293H1147.22V44.8159C1148.04 44.511 1149.08 44.2217 1150.32 43.9507C1151.55 43.6807 1152.93 43.543 1154.43 43.543C1154.72 43.543 1155.05 43.5626 1155.42 43.5976C1155.8 43.6325 1156.18 43.6807 1156.56 43.7377C1156.93 43.7987 1157.3 43.8691 1157.65 43.9507C1158.01 44.0324 1158.29 44.1106 1158.5 44.1814L1157.76 47.7863Z" fill="black"/>
<path d="M1177.99 52.704C1177.99 54.1658 1177.77 55.4978 1177.35 56.6995C1176.93 57.9006 1176.33 58.9276 1175.55 59.7761C1174.77 60.6251 1173.83 61.2861 1172.74 61.7559C1171.64 62.2286 1170.43 62.4647 1169.11 62.4647C1167.79 62.4647 1166.59 62.2286 1165.5 61.7559C1164.42 61.2861 1163.49 60.6246 1162.71 59.7761C1161.93 58.9276 1161.33 57.9006 1160.89 56.6995C1160.45 55.4978 1160.23 54.1658 1160.23 52.704C1160.23 51.2407 1160.45 49.9156 1160.89 48.7253C1161.33 47.5349 1161.94 46.5138 1162.73 45.6663C1163.52 44.8154 1164.45 44.1607 1165.54 43.7023C1166.62 43.2439 1167.81 43.0117 1169.11 43.0117C1170.41 43.0117 1171.6 43.2444 1172.7 43.7023C1173.8 44.1612 1174.73 44.8154 1175.51 45.6663C1176.29 46.5138 1176.9 47.5349 1177.33 48.7253C1177.77 49.9156 1177.99 51.2407 1177.99 52.704ZM1173.6 52.704C1173.6 50.8639 1173.21 49.409 1172.42 48.3372C1171.63 47.2634 1170.53 46.7263 1169.11 46.7263C1167.7 46.7263 1166.59 47.2639 1165.8 48.3372C1165.01 49.409 1164.62 50.8639 1164.62 52.704C1164.62 54.5662 1165.01 56.0394 1165.8 57.1229C1166.59 58.209 1167.7 58.7505 1169.11 58.7505C1170.53 58.7505 1171.63 58.209 1172.42 57.1229C1173.21 56.0394 1173.6 54.5662 1173.6 52.704Z" fill="black"/>
<path d="M1198.85 53.1983C1198.85 54.6139 1198.67 55.9095 1198.31 57.0881C1197.94 58.2671 1197.42 59.2833 1196.73 60.1298C1196.05 60.9802 1195.19 61.6398 1194.17 62.111C1193.14 62.5827 1191.98 62.8183 1190.68 62.8183C1189.81 62.8183 1189.01 62.7126 1188.28 62.4996C1187.55 62.2881 1186.95 62.052 1186.48 61.7928V68.9711H1182.2V44.5346C1183.07 44.299 1184.14 44.0737 1185.42 43.8632C1186.69 43.6492 1188.03 43.543 1189.45 43.543C1190.91 43.543 1192.22 43.7677 1193.37 44.2153C1194.53 44.6624 1195.51 45.3068 1196.33 46.1425C1197.14 46.9811 1197.76 47.9944 1198.2 49.1842C1198.64 50.3745 1198.85 51.7139 1198.85 53.1983ZM1194.47 53.2702C1194.47 51.3593 1194.04 49.8733 1193.18 48.8128C1192.32 47.7519 1190.93 47.2226 1189.02 47.2226C1188.62 47.2226 1188.2 47.2394 1187.77 47.2748C1187.33 47.3097 1186.9 47.3859 1186.48 47.504V58.0782C1186.85 58.3374 1187.35 58.5794 1187.98 58.8032C1188.6 59.03 1189.27 59.1396 1189.98 59.1396C1191.53 59.1396 1192.67 58.6094 1193.39 57.5499C1194.11 56.4875 1194.47 55.0606 1194.47 53.2702Z" fill="black"/>
<path d="M1202.04 52.8454C1202.04 51.2188 1202.28 49.7919 1202.76 48.5656C1203.24 47.3404 1203.89 46.3202 1204.69 45.5072C1205.49 44.6936 1206.41 44.0803 1207.45 43.6676C1208.49 43.2559 1209.55 43.0488 1210.63 43.0488C1213.18 43.0488 1215.16 43.8393 1216.59 45.4191C1218.01 46.998 1218.73 49.3556 1218.73 52.4917C1218.73 52.7273 1218.72 52.9934 1218.71 53.2866C1218.7 53.5827 1218.68 53.8483 1218.66 54.0834H1206.46C1206.58 55.5689 1207.1 56.7184 1208.03 57.5314C1208.96 58.343 1210.31 58.7508 1212.08 58.7508C1213.12 58.7508 1214.06 58.6583 1214.93 58.4669C1215.79 58.28 1216.46 58.0784 1216.96 57.8679L1217.53 61.3675C1217.29 61.4855 1216.97 61.61 1216.55 61.7389C1216.14 61.8687 1215.67 61.9873 1215.14 62.0935C1214.61 62.1997 1214.04 62.2883 1213.42 62.3581C1212.81 62.429 1212.18 62.4654 1211.55 62.4654C1209.92 62.4654 1208.51 62.2219 1207.31 61.7389C1206.1 61.2568 1205.11 60.584 1204.33 59.7242C1203.56 58.8619 1202.98 57.8477 1202.6 56.6824C1202.22 55.5157 1202.04 54.2369 1202.04 52.8454ZM1214.45 50.936C1214.45 50.3462 1214.37 49.7865 1214.2 49.2547C1214.04 48.726 1213.79 48.2656 1213.48 47.876C1213.16 47.4875 1212.77 47.1805 1212.31 46.9572C1211.85 46.7339 1211.3 46.6203 1210.66 46.6203C1210 46.6203 1209.43 46.7447 1208.93 46.9921C1208.44 47.2396 1208.02 47.5632 1207.68 47.9646C1207.33 48.3649 1207.07 48.8253 1206.88 49.3452C1206.69 49.8632 1206.56 50.3934 1206.49 50.936H1214.45Z" fill="black"/>
<path d="M1220.68 69.0059C1220.37 69.0059 1219.94 68.9759 1219.38 68.9183C1218.83 68.8588 1218.34 68.7481 1217.91 68.5819L1218.48 65.0817C1219 65.2465 1219.63 65.3282 1220.35 65.3282C1221.35 65.3282 1222.04 65.0394 1222.44 64.4625C1222.84 63.8826 1223.04 63.0169 1223.04 61.8625V43.9329H1227.32V61.9333C1227.32 64.3395 1226.75 66.1191 1225.61 67.2735C1224.46 68.4274 1222.82 69.0059 1220.68 69.0059ZM1227.78 38.5228C1227.78 39.3221 1227.52 39.9605 1227 40.4307C1226.48 40.9034 1225.87 41.1395 1225.17 41.1395C1224.43 41.1395 1223.81 40.9034 1223.29 40.4307C1222.77 39.9605 1222.51 39.3221 1222.51 38.5228C1222.51 37.6984 1222.77 37.0482 1223.29 36.575C1223.81 36.1052 1224.43 35.8687 1225.17 35.8687C1225.87 35.8687 1226.49 36.1048 1227 36.575C1227.52 37.0482 1227.78 37.6984 1227.78 38.5228Z" fill="black"/>
<path d="M1237.19 58.9283C1238.32 58.9283 1239.15 58.7935 1239.66 58.522C1240.18 58.2505 1240.44 57.7862 1240.44 57.1237C1240.44 56.5118 1240.17 56.0051 1239.61 55.6028C1239.06 55.2029 1238.14 54.7671 1236.87 54.2954C1236.09 54.0131 1235.38 53.7111 1234.73 53.3938C1234.08 53.0761 1233.52 52.7047 1233.05 52.2792C1232.58 51.8548 1232.21 51.3422 1231.94 50.7402C1231.67 50.1391 1231.53 49.4033 1231.53 48.5297C1231.53 46.8318 1232.16 45.4954 1233.41 44.5161C1234.66 43.5387 1236.35 43.0488 1238.5 43.0488C1239.58 43.0488 1240.62 43.1502 1241.61 43.3499C1242.6 43.551 1243.34 43.7453 1243.84 43.9337L1243.06 47.3979C1242.59 47.1869 1241.99 46.9926 1241.26 46.8151C1240.53 46.638 1239.68 46.5504 1238.71 46.5504C1237.84 46.5504 1237.13 46.697 1236.59 46.9921C1236.05 47.2882 1235.78 47.7408 1235.78 48.3541C1235.78 48.6596 1235.83 48.9316 1235.93 49.1677C1236.04 49.4033 1236.22 49.6202 1236.48 49.8199C1236.74 50.0211 1237.08 50.2227 1237.51 50.4224C1237.93 50.6241 1238.45 50.8302 1239.06 51.0422C1240.08 51.419 1240.94 51.7903 1241.65 52.1563C1242.35 52.5217 1242.94 52.9329 1243.4 53.3943C1243.86 53.8532 1244.19 54.3795 1244.4 54.9673C1244.62 55.5561 1244.72 56.2644 1244.72 57.0887C1244.72 58.8575 1244.07 60.1969 1242.76 61.1039C1241.45 62.0104 1239.58 62.4663 1237.16 62.4663C1235.53 62.4663 1234.22 62.3311 1233.23 62.0586C1232.24 61.788 1231.54 61.5701 1231.14 61.4059L1231.89 57.8319C1232.52 58.0931 1233.28 58.3386 1234.17 58.5747C1235.05 58.8103 1236.06 58.9283 1237.19 58.9283Z" fill="black"/>
<path d="M1252.79 51.1453C1253.33 50.5821 1253.91 49.9751 1254.52 49.3249C1255.13 48.6781 1255.73 48.0273 1256.32 47.381C1256.91 46.7342 1257.47 46.1076 1258 45.507C1258.53 44.9054 1258.99 44.3811 1259.36 43.9335H1264.42C1263.24 45.2532 1262 46.6206 1260.69 48.0347C1259.38 49.4503 1258.07 50.8305 1256.75 52.1728C1257.45 52.7635 1258.2 53.4748 1258.97 54.3129C1259.75 55.1496 1260.51 56.0404 1261.24 56.9833C1261.97 57.9277 1262.65 58.8696 1263.29 59.8125C1263.93 60.7549 1264.46 61.627 1264.88 62.4293H1259.93C1259.5 61.7003 1259.02 60.932 1258.46 60.1298C1257.91 59.3295 1257.31 58.5519 1256.67 57.7978C1256.04 57.0423 1255.39 56.3286 1254.73 55.6562C1254.07 54.9843 1253.42 54.4133 1252.78 53.9435V62.4298H1248.51V38.6277L1252.78 37.9209V51.1453H1252.79Z" fill="black"/>
<path d="M1273.93 43.1191C1275.35 43.1191 1276.54 43.2962 1277.51 43.6494C1278.47 44.004 1279.24 44.4993 1279.82 45.1348C1280.4 45.7728 1280.81 46.545 1281.06 47.451C1281.31 48.3585 1281.43 49.3556 1281.43 50.4391V61.6508C1280.77 61.793 1279.78 61.9646 1278.44 62.1628C1277.11 62.364 1275.61 62.4653 1273.93 62.4653C1272.83 62.4653 1271.81 62.3581 1270.89 62.1461C1269.97 61.9341 1269.19 61.5933 1268.54 61.1206C1267.89 60.6499 1267.38 60.0375 1267.02 59.2834C1266.65 58.5274 1266.47 57.5963 1266.47 56.4877C1266.47 55.4287 1266.68 54.5305 1267.09 53.7986C1267.5 53.0701 1268.06 52.474 1268.77 52.0131C1269.48 51.5547 1270.3 51.2242 1271.23 51.0245C1272.16 50.8248 1273.13 50.723 1274.15 50.723C1274.62 50.723 1275.11 50.7539 1275.63 50.8105C1276.15 50.871 1276.7 50.9713 1277.29 51.1115V50.4047C1277.29 49.9094 1277.23 49.4372 1277.12 48.9901C1277 48.5425 1276.79 48.1451 1276.5 47.8052C1276.2 47.4653 1275.81 47.1992 1275.33 47.0089C1274.85 46.8219 1274.24 46.7265 1273.51 46.7265C1272.52 46.7265 1271.61 46.7964 1270.79 46.939C1269.96 47.0797 1269.29 47.2459 1268.77 47.4343L1268.24 43.9691C1268.78 43.7787 1269.57 43.5918 1270.61 43.4025C1271.65 43.2151 1272.76 43.1191 1273.93 43.1191ZM1274.29 59.069C1275.61 59.069 1276.61 58.9982 1277.29 58.856V54.1188C1277.06 54.046 1276.71 53.9752 1276.27 53.9053C1275.82 53.8345 1275.32 53.7976 1274.78 53.7976C1274.31 53.7976 1273.83 53.8345 1273.35 53.9053C1272.87 53.9752 1272.43 54.1045 1272.04 54.2944C1271.65 54.4833 1271.34 54.7494 1271.1 55.0893C1270.87 55.4326 1270.75 55.8615 1270.75 56.3809C1270.75 57.3942 1271.07 58.0946 1271.71 58.4851C1272.34 58.8747 1273.2 59.069 1274.29 59.069Z" fill="black"/>
<path d="M65.6528 131.285L0 118.977V20.5127L65.6528 0V131.285Z" fill="#034EA2"/>
<path d="M0.00878906 95.3135V69.7489C3.31439 70.6497 6.99237 71.0706 9.4174 69.6067C14.7207 66.4447 22.7522 56.7612 22.7522 56.7612C22.7522 56.7612 18.5168 67.2033 20.1151 71.0394C21.8029 75.1089 31.8363 75.3277 31.8363 75.3277C31.8363 75.3277 20.4939 82.2241 15.2147 86.7968C9.78516 91.4582 6.0171 108.597 6.0171 108.597C6.0171 108.597 3.38425 97.6115 0.00878906 95.3135Z" fill="#FFF200"/>
<path d="M65.6526 50.2122C63.3811 51.6435 61.1529 52.7702 59.4765 53.0958C54.2027 54.1136 48.5564 48.0542 48.5564 48.0542C48.5564 48.0542 49.8831 56.9138 46.5644 62.3721C43.0709 68.1254 31.8369 75.3267 31.8369 75.3267C31.8369 75.3267 44.2543 72.9237 46.6687 76.7754C49.2366 80.9056 49.5799 95.2926 49.5799 95.2926C49.5799 95.2926 55.9063 78.0192 61.6469 75.6672C62.7651 75.192 64.1617 74.7512 65.6526 74.3302V50.2122Z" fill="#ED1C24"/>
<path d="M22.7526 56.7615C22.7526 56.7615 29.0974 46.8189 28.7134 43.2817C28.3375 39.9208 21.7578 38.7097 21.7578 38.7097C21.7578 38.7097 30.3731 36.5946 34.1305 33.2159C37.7549 29.9518 40.9243 23.1807 40.9243 23.1807C40.9243 23.1807 41.7258 28.7833 44.9495 29.5865C48.275 30.4238 57.1612 26.837 57.1612 26.837C57.1612 26.837 50.1468 33.4734 47.3937 37.0932C44.5183 40.8691 48.5576 48.0537 48.5576 48.0537C48.5576 48.0537 41.1127 45.4634 36.9478 46.2419C32.8474 47.0203 22.7526 56.7615 22.7526 56.7615Z" fill="white"/>
<path d="M98.4556 49.2301V24.6074H114.018V28.4092H102.932V34.6987H112.773V38.5001H102.932V49.2301H98.4556Z" fill="black"/>
<path d="M132.067 48.2701C131.237 48.4836 130.16 48.7027 128.834 48.9279C127.506 49.1528 126.05 49.2649 124.463 49.2649C122.971 49.2649 121.722 49.0528 120.715 48.6254C119.708 48.1992 118.903 47.6076 118.299 46.8494C117.695 46.0908 117.262 45.1858 117.002 44.1321C116.741 43.0781 116.611 41.9231 116.611 40.6677V30.2572H120.911V39.9921C120.911 41.9812 121.2 43.4023 121.781 44.2556C122.361 45.1078 123.374 45.5337 124.818 45.5337C125.339 45.5337 125.89 45.5106 126.471 45.4631C127.051 45.4149 127.483 45.3557 127.767 45.2858V30.2568H132.067V48.2701H132.067Z" fill="black"/>
<path d="M137.325 31.2519C138.154 31.0157 139.231 30.7894 140.557 30.5763C141.885 30.3642 143.352 30.2578 144.964 30.2578C146.479 30.2578 147.747 30.4649 148.765 30.8799C149.783 31.2937 150.596 31.8736 151.198 32.6208C151.803 33.3666 152.229 34.2677 152.478 35.321C152.727 36.3743 152.851 37.529 152.851 38.7844V49.2307H148.552V39.4604C148.552 38.4645 148.486 37.6184 148.357 36.919C148.227 36.2207 148.013 35.6522 147.717 35.2143C147.42 34.7756 147.018 34.456 146.509 34.2546C145.999 34.0528 145.378 33.9521 144.644 33.9521C144.098 33.9521 143.53 33.9883 142.937 34.0588C142.346 34.1294 141.908 34.1897 141.624 34.2369V49.2304H137.324V31.2519H137.325Z" fill="black"/>
<path d="M173.6 48.2346C172.747 48.496 171.674 48.7315 170.384 48.9457C169.094 49.1585 167.738 49.2648 166.316 49.2648C164.847 49.2648 163.532 49.04 162.373 48.5903C161.212 48.1403 160.223 47.4941 159.406 46.6529C158.588 45.8135 157.961 44.7946 157.522 43.5981C157.084 42.4022 156.865 41.0581 156.865 39.5654C156.865 38.0969 157.048 36.7648 157.416 35.5697C157.783 34.3724 158.322 33.3475 159.033 32.4957C159.743 31.6431 160.607 30.9853 161.627 30.5235C162.644 30.0611 163.817 29.8295 165.144 29.8295C166.043 29.8295 166.836 29.9377 167.524 30.1505C168.212 30.3639 168.804 30.6008 169.301 30.8597V25.3171L173.6 24.6074V48.2346ZM161.272 39.4601C161.272 41.3542 161.721 42.8395 162.622 43.9179C163.52 44.9957 164.764 45.5344 166.351 45.5344C167.038 45.5344 167.625 45.5053 168.111 45.4461C168.596 45.3869 168.993 45.3209 169.301 45.2503V34.5905C168.921 34.3317 168.417 34.0884 167.791 33.8628C167.163 33.638 166.494 33.5256 165.783 33.5256C164.22 33.5256 163.077 34.0586 162.354 35.125C161.632 36.1903 161.272 37.6348 161.272 39.4601Z" fill="black"/>
<path d="M194.099 48.2701C193.272 48.4836 192.192 48.7027 190.867 48.9279C189.54 49.1528 188.084 49.2649 186.497 49.2649C185.005 49.2649 183.755 49.0528 182.748 48.6254C181.743 48.1992 180.936 47.6076 180.333 46.8494C179.728 46.0908 179.296 45.1858 179.036 44.1321C178.776 43.0781 178.646 41.9231 178.646 40.6677V30.2572H182.943V39.9921C182.943 41.9812 183.233 43.4023 183.814 44.2556C184.395 45.1078 185.407 45.5337 186.851 45.5337C187.373 45.5337 187.923 45.5106 188.503 45.4631C189.085 45.4149 189.517 45.3557 189.801 45.2858V30.2568H194.099V48.2701H194.099Z" fill="black"/>
<path d="M204.013 45.712C205.15 45.712 205.978 45.5758 206.5 45.3038C207.021 45.0318 207.281 44.5636 207.281 43.9001C207.281 43.2841 207.003 42.7748 206.446 42.3716C205.889 41.9698 204.972 41.5325 203.693 41.0577C202.91 40.7736 202.194 40.4718 201.544 40.1523C200.891 39.8317 200.33 39.4597 199.855 39.0323C199.381 38.606 199.008 38.0911 198.737 37.4868C198.464 36.8832 198.329 36.1434 198.329 35.266C198.329 33.5616 198.955 32.2172 200.211 31.2345C201.465 30.2514 203.171 29.7603 205.327 29.7603C206.417 29.7603 207.459 29.8606 208.454 30.0613C209.45 30.2628 210.194 30.4585 210.692 30.6486L209.909 34.1291C209.437 33.917 208.834 33.7202 208.099 33.5432C207.365 33.3659 206.511 33.2769 205.54 33.2769C204.662 33.2769 203.955 33.4247 203.409 33.7202C202.865 34.0177 202.592 34.4727 202.592 35.0887C202.592 35.3969 202.645 35.6693 202.752 35.9065C202.859 36.1434 203.041 36.3622 203.303 36.5633C203.563 36.7644 203.906 36.9662 204.333 37.1673C204.758 37.3687 205.28 37.5758 205.897 37.7893C206.914 38.1688 207.779 38.5404 208.49 38.9075C209.2 39.2756 209.784 39.6902 210.248 40.1526C210.71 40.6133 211.048 41.1414 211.262 41.7329C211.474 42.3259 211.58 43.0369 211.58 43.8657C211.58 45.641 210.923 46.9858 209.609 47.8976C208.294 48.8098 206.416 49.2648 203.976 49.2648C202.342 49.2648 201.028 49.1289 200.033 48.8559C199.037 48.5835 198.339 48.3654 197.937 48.1991L198.683 44.6097C199.322 44.8711 200.086 45.1204 200.975 45.3559C201.864 45.5939 202.875 45.712 204.013 45.712Z" fill="black"/>
<path d="M228.385 33.669C227.91 34.1648 227.288 34.8645 226.519 35.7635C225.749 36.6654 224.925 37.6651 224.05 38.7663C223.172 39.8682 222.291 41.0172 221.403 42.2123C220.514 43.4096 219.715 44.5522 219.004 45.6413H228.599V49.2307H213.818V46.5648C214.338 45.6179 214.99 44.5877 215.772 43.4745C216.553 42.362 217.359 41.2417 218.187 40.1168C219.017 38.9908 219.84 37.9205 220.657 36.9012C221.475 35.8838 222.202 34.994 222.842 34.2368H214.279V30.6489H228.385V33.669H228.385Z" fill="black"/>
<path d="M230.729 39.6012C230.729 37.9666 230.972 36.5342 231.458 35.3019C231.943 34.0713 232.589 33.0467 233.395 32.2289C234.199 31.4111 235.123 30.7954 236.166 30.3809C237.207 29.9667 238.273 29.7603 239.363 29.7603C241.922 29.7603 243.916 30.5532 245.351 32.1399C246.783 33.7273 247.499 36.0959 247.499 39.2458C247.499 39.4831 247.493 39.749 247.48 40.0445C247.47 40.342 247.453 40.6083 247.428 40.8445H235.171C235.288 42.3369 235.815 43.4919 236.751 44.309C237.687 45.1254 239.044 45.5343 240.82 45.5343C241.862 45.5343 242.815 45.4403 243.678 45.2502C244.545 45.0609 245.226 44.8591 245.723 44.6459L246.292 48.164C246.055 48.2828 245.728 48.4072 245.313 48.5367C244.899 48.6672 244.426 48.7849 243.893 48.892C243.361 48.9988 242.785 49.0878 242.169 49.1584C241.555 49.2304 240.926 49.2651 240.286 49.2651C238.653 49.2651 237.232 49.0225 236.023 48.5367C234.814 48.0519 233.821 47.3766 233.04 46.5117C232.257 45.6474 231.675 44.6289 231.298 43.4561C230.919 42.284 230.729 40.9988 230.729 39.6012ZM243.2 37.6826C243.2 37.091 243.117 36.5279 242.952 35.9955C242.784 35.4615 242.544 34.9997 242.222 34.61C241.903 34.2184 241.512 33.9117 241.05 33.6851C240.588 33.4609 240.038 33.3478 239.398 33.3478C238.734 33.3478 238.155 33.473 237.657 33.7205C237.16 33.9698 236.74 34.2965 236.396 34.6993C236.053 35.1015 235.785 35.5643 235.596 36.0835C235.406 36.6052 235.277 37.1389 235.206 37.6829H243.2V37.6826Z" fill="black"/>
<path d="M98.4551 82.05V57.4302H114.265V61.2316H102.932V67.3066H113.022V71.0367H102.932V78.2511H115.118V82.0504H98.4551V82.05Z" fill="black"/>
<path d="M133.487 81.0916C132.657 81.3061 131.58 81.5239 130.254 81.7502C128.927 81.9746 127.469 82.0864 125.884 82.0864C124.392 82.0864 123.142 81.8743 122.134 81.4459C121.128 81.0203 120.323 80.4284 119.719 79.672C119.115 78.913 118.683 78.0073 118.422 76.9522C118.162 75.8979 118.031 74.7446 118.031 73.487V63.0776H122.331V72.8139C122.331 74.8042 122.62 76.2231 123.2 77.0771C123.781 77.9307 124.794 78.3562 126.238 78.3562C126.759 78.3562 127.31 78.3325 127.89 78.2857C128.471 78.2374 128.903 78.1768 129.187 78.1087V63.0776H133.486V81.0916H133.487Z" fill="black"/>
<path d="M149.332 67.342C148.978 67.2249 148.486 67.0987 147.859 66.9699C147.231 66.8387 146.503 66.7735 145.674 66.7735C145.199 66.7735 144.696 66.8217 144.164 66.915C143.63 67.0111 143.258 67.0926 143.045 67.1636V82.05H138.746V64.3573C139.574 64.0498 140.612 63.7597 141.855 63.4867C143.098 63.2157 144.478 63.0781 145.994 63.0781C146.278 63.0781 146.609 63.0966 146.989 63.1327C147.368 63.1675 147.747 63.2157 148.126 63.2739C148.504 63.3338 148.872 63.4044 149.227 63.4867C149.583 63.57 149.866 63.6463 150.08 63.7168L149.332 67.342Z" fill="black"/>
<path d="M169.655 72.2808C169.655 73.7493 169.442 75.0878 169.016 76.2946C168.59 77.5046 167.988 78.5345 167.205 79.3874C166.424 80.2378 165.483 80.9024 164.38 81.3773C163.278 81.8507 162.066 82.0869 160.739 82.0869C159.412 82.0869 158.204 81.8507 157.114 81.3773C156.024 80.9024 155.089 80.2378 154.307 79.3874C153.526 78.5349 152.916 77.5046 152.478 76.2946C152.04 75.0878 151.82 73.749 151.82 72.2808C151.82 70.8136 152.04 69.4805 152.478 68.2836C152.916 67.0881 153.531 66.0639 154.326 65.2103C155.118 64.3581 156.06 63.7006 157.149 63.2399C158.239 62.7761 159.436 62.5459 160.739 62.5459C162.04 62.5459 163.244 62.7761 164.343 63.2399C165.446 63.7006 166.388 64.3578 167.171 65.2103C167.95 66.0639 168.561 67.0881 168.999 68.2836C169.438 69.4805 169.655 70.8136 169.655 72.2808ZM165.251 72.2808C165.251 70.4335 164.855 68.9706 164.061 67.8935C163.267 66.8161 162.162 66.2764 160.739 66.2764C159.317 66.2764 158.21 66.8158 157.417 67.8935C156.623 68.9706 156.227 70.4335 156.227 72.2808C156.227 74.1519 156.623 75.6335 157.417 76.723C158.21 77.8125 159.317 78.3568 160.739 78.3568C162.162 78.3568 163.267 77.8125 164.061 76.723C164.855 75.6335 165.251 74.1519 165.251 72.2808Z" fill="black"/>
<path d="M190.618 72.7775C190.618 74.1996 190.434 75.5029 190.067 76.6871C189.701 77.8716 189.173 78.8891 188.486 79.743C187.799 80.5935 186.94 81.2577 185.91 81.7311C184.879 82.2049 183.714 82.4411 182.409 82.4411C181.534 82.4411 180.729 82.3347 179.995 82.1227C179.261 81.9081 178.656 81.6719 178.182 81.4105V88.6246H173.885V64.0725C174.76 63.8378 175.838 63.6115 177.117 63.3991C178.397 63.1849 179.746 63.0781 181.168 63.0781C182.637 63.0781 183.951 63.3037 185.111 63.7544C186.271 64.2034 187.261 64.8499 188.077 65.6904C188.895 66.5302 189.521 67.5494 189.961 68.7467C190.399 69.9425 190.618 71.2852 190.618 72.7775ZM186.213 72.8481C186.213 70.9316 185.78 69.439 184.917 68.3718C184.052 67.3061 182.66 66.7731 180.741 66.7731C180.339 66.7731 179.919 66.7901 179.481 66.8256C179.041 66.8632 178.61 66.9398 178.183 67.0572V77.6804C178.562 77.9418 179.065 78.1851 179.693 78.4085C180.32 78.6348 180.991 78.7461 181.701 78.7461C183.264 78.7461 184.407 78.2131 185.129 77.1474C185.851 76.0821 186.213 74.649 186.213 72.8481Z" fill="black"/>
<path d="M193.817 72.4232C193.817 70.7876 194.059 69.3562 194.545 68.1221C195.029 66.8925 195.676 65.8676 196.481 65.0516C197.286 64.2324 198.208 63.6174 199.253 63.2018C200.295 62.7887 201.36 62.5815 202.45 62.5815C205.009 62.5815 207.003 63.3759 208.437 64.9626C209.869 66.5507 210.586 68.9165 210.586 72.0668C210.586 72.3044 210.58 72.57 210.569 72.8668C210.556 73.1651 210.539 73.4311 210.516 73.6655H198.258C198.376 75.1581 198.903 76.3143 199.837 77.131C200.775 77.9481 202.13 78.3566 203.908 78.3566C204.95 78.3566 205.902 78.2616 206.768 78.0722C207.633 77.8828 208.314 77.6807 208.81 77.4676L209.38 80.9856C209.142 81.1026 208.816 81.2289 208.4 81.3587C207.987 81.4871 207.514 81.6073 206.981 81.7133C206.448 81.8208 205.873 81.9084 205.258 81.9807C204.642 82.0499 204.014 82.0868 203.374 82.0868C201.74 82.0868 200.318 81.8435 199.111 81.3587C197.902 80.8725 196.909 80.1983 196.127 79.333C195.344 78.4684 194.764 77.4505 194.386 76.2777C194.007 75.1042 193.817 73.8208 193.817 72.4232ZM206.288 70.5038C206.288 69.9116 206.205 69.3488 206.039 68.8175C205.872 68.2831 205.63 67.8224 205.31 67.4309C204.99 67.0394 204.6 66.7312 204.138 66.5071C203.675 66.2819 203.126 66.1691 202.486 66.1691C201.823 66.1691 201.241 66.2936 200.744 66.5422C200.247 66.7908 199.827 67.1174 199.483 67.5206C199.139 67.9231 198.873 68.3852 198.683 68.9055C198.494 69.4272 198.364 69.9602 198.292 70.5042H206.288V70.5038Z" fill="black"/>
<path d="M212.539 88.6601C212.231 88.6601 211.8 88.6304 211.242 88.5711C210.686 88.5105 210.194 88.3988 209.769 88.2349L210.337 84.7151C210.859 84.8822 211.486 84.9641 212.219 84.9641C213.215 84.9641 213.913 84.6744 214.316 84.0934C214.719 83.514 214.921 82.643 214.921 81.4815V63.4697H219.219V81.5549C219.219 83.9693 218.645 85.7585 217.496 86.9192C216.346 88.0792 214.694 88.6601 212.539 88.6601ZM219.681 58.0331C219.681 58.8392 219.42 59.4782 218.899 59.9517C218.378 60.4251 217.763 60.6627 217.052 60.6627C216.317 60.6627 215.689 60.4251 215.169 59.9517C214.647 59.4782 214.387 58.8392 214.387 58.0331C214.387 57.2039 214.647 56.5539 215.169 56.079C215.689 55.6045 216.317 55.3687 217.052 55.3687C217.763 55.3687 218.378 55.6045 218.899 56.079C219.419 56.5539 219.681 57.2039 219.681 58.0331Z" fill="black"/>
<path d="M229.133 78.5342C230.269 78.5342 231.097 78.3973 231.619 78.126C232.141 77.8547 232.399 77.3855 232.399 76.7227C232.399 76.1067 232.123 75.596 231.565 75.1945C231.008 74.7931 230.091 74.3537 228.812 73.8788C228.03 73.5944 227.313 73.2923 226.663 72.9724C226.01 72.6532 225.449 72.2801 224.974 71.8531C224.5 71.4265 224.128 70.9133 223.856 70.3097C223.583 69.7047 223.448 68.9639 223.448 68.0876C223.448 66.3828 224.074 65.038 225.33 64.0553C226.586 63.0726 228.29 62.5811 230.447 62.5811C231.536 62.5811 232.579 62.6821 233.574 62.8836C234.569 63.085 235.313 63.2808 235.811 63.4694L235.03 66.9513C234.556 66.7378 233.952 66.5413 233.218 66.3647C232.484 66.1863 231.631 66.0973 230.659 66.0973C229.783 66.0973 229.073 66.2477 228.528 66.5413C227.984 66.8382 227.71 67.2946 227.71 67.9095C227.71 68.2174 227.764 68.4904 227.87 68.7266C227.978 68.9639 228.16 69.1845 228.422 69.3848C228.682 69.5856 229.024 69.7866 229.452 69.987C229.877 70.1902 230.399 70.397 231.014 70.6105C232.032 70.9889 232.898 71.3623 233.609 71.7283C234.319 72.0957 234.904 72.5113 235.367 72.972C235.829 73.4345 236.167 73.9618 236.379 74.5551C236.593 75.146 236.7 75.857 236.7 76.6869C236.7 78.4622 236.042 79.8059 234.728 80.7191C233.413 81.6306 231.535 82.0859 229.095 82.0859C227.461 82.0859 226.147 81.9501 225.152 81.6774C224.157 81.4047 223.459 81.1869 223.056 81.0199L223.802 77.4313C224.441 77.6926 225.206 77.9416 226.093 78.1767C226.983 78.4172 227.995 78.5342 229.133 78.5342Z" fill="black"/>
<path d="M244.799 70.7171C245.343 70.1486 245.924 69.5415 246.54 68.8882C247.155 68.2368 247.76 67.5849 248.352 66.9349C248.944 66.2816 249.507 65.6543 250.04 65.0514C250.573 64.4464 251.028 63.9201 251.408 63.4697H256.488C255.303 64.7961 254.052 66.1685 252.739 67.5903C251.425 69.0124 250.105 70.3976 248.779 71.7474C249.488 72.3396 250.235 73.0574 251.017 73.8975C251.798 74.7384 252.556 75.6335 253.291 76.58C254.024 77.5269 254.712 78.4752 255.352 79.4239C255.99 80.3711 256.524 81.2475 256.95 82.05H251.977C251.55 81.318 251.058 80.546 250.503 79.7434C249.945 78.9363 249.348 78.1546 248.708 77.3971C248.068 76.6393 247.415 75.9229 246.754 75.2469C246.09 74.5731 245.439 73.9975 244.799 73.5241V82.05H240.5V58.1391L244.799 57.4302V70.7171Z" fill="black"/>
<path d="M264.661 58.0331C264.661 58.8392 264.4 59.4782 263.879 59.9517C263.358 60.4251 262.743 60.6627 262.032 60.6627C261.296 60.6627 260.669 60.4251 260.149 59.9517C259.627 59.4782 259.367 58.8392 259.367 58.0331C259.367 57.2039 259.627 56.5539 260.149 56.079C260.669 55.6045 261.296 55.3687 262.032 55.3687C262.743 55.3687 263.358 55.6045 263.879 56.079C264.399 56.5539 264.661 57.2039 264.661 58.0331ZM264.198 82.0497H259.899V63.4693H264.198V82.0497Z" fill="black"/>
<path d="M268.427 72.4232C268.427 70.7876 268.669 69.3562 269.155 68.1221C269.64 66.8925 270.286 65.8676 271.092 65.0516C271.896 64.2324 272.82 63.6174 273.863 63.2018C274.905 62.7887 275.97 62.5815 277.06 62.5815C279.619 62.5815 281.612 63.3759 283.048 64.9626C284.48 66.5507 285.196 68.9165 285.196 72.0668C285.196 72.3044 285.191 72.57 285.179 72.8668C285.167 73.1651 285.15 73.4311 285.126 73.6655H272.868C272.985 75.1581 273.513 76.3143 274.449 77.131C275.384 77.9478 276.741 78.3566 278.517 78.3566C279.559 78.3566 280.512 78.2616 281.377 78.0722C282.242 77.8828 282.924 77.6807 283.418 77.4676L283.989 80.9856C283.751 81.1026 283.425 81.2289 283.011 81.3587C282.596 81.4871 282.123 81.6073 281.59 81.7133C281.057 81.8208 280.482 81.9084 279.867 81.9807C279.251 82.0499 278.624 82.0868 277.983 82.0868C276.349 82.0868 274.929 81.8435 273.72 81.3587C272.512 80.8725 271.518 80.1983 270.737 79.333C269.954 78.4684 269.374 77.4505 268.996 76.2777C268.616 75.1042 268.427 73.8208 268.427 72.4232ZM280.897 70.5038C280.897 69.9116 280.814 69.3488 280.647 68.8175C280.482 68.2831 280.241 67.8224 279.919 67.4309C279.601 67.0394 279.21 66.7312 278.748 66.5071C278.285 66.2819 277.735 66.1691 277.095 66.1691C276.433 66.1691 275.852 66.2936 275.354 66.5422C274.855 66.7908 274.437 67.1174 274.093 67.5206C273.75 67.9231 273.483 68.3852 273.293 68.9055C273.104 69.4272 272.974 69.9602 272.903 70.5042H280.897V70.5038Z" fill="black"/>
<path d="M107.369 103.876C106.713 105.971 106.048 107.909 105.376 109.691C104.703 111.472 104.031 113.207 103.359 114.895H101.085C100.256 112.504 99.5263 109.981 98.8926 107.322C98.2592 104.665 97.6694 101.773 97.1226 98.6468H99.5139C99.7331 99.8661 99.9597 101.086 100.194 102.304C100.428 103.524 100.671 104.707 100.921 105.858C101.171 107.006 101.42 108.105 101.671 109.151C101.921 110.2 102.179 111.169 102.444 112.058C103.07 110.417 103.734 108.615 104.438 106.654C105.141 104.693 105.798 102.665 106.407 100.569H108.377C108.986 102.665 109.651 104.693 110.37 106.654C111.089 108.615 111.761 110.417 112.387 112.058C112.637 111.183 112.887 110.222 113.137 109.174C113.386 108.128 113.632 107.031 113.875 105.88C114.118 104.733 114.356 103.544 114.591 102.316C114.825 101.09 115.052 99.8661 115.27 98.6465H117.592C117.03 101.773 116.432 104.665 115.798 107.322C115.165 109.981 114.442 112.503 113.63 114.895H111.355C110.667 113.207 109.995 111.472 109.339 109.691C108.682 107.909 108.026 105.971 107.369 103.876Z" fill="black"/>
<path d="M121.085 100.501C120.694 100.501 120.362 100.372 120.088 100.113C119.815 99.8558 119.679 99.5082 119.679 99.0685C119.679 98.6333 119.815 98.2844 120.088 98.0283C120.362 97.7684 120.694 97.6396 121.085 97.6396C121.476 97.6396 121.808 97.768 122.081 98.0283C122.355 98.2844 122.492 98.6333 122.492 99.0685C122.492 99.5082 122.354 99.8561 122.081 100.113C121.808 100.372 121.476 100.501 121.085 100.501ZM122.187 114.896H120.007V102.704H122.187V114.896Z" fill="black"/>
<path d="M125.142 108.545C125.142 107.465 125.297 106.523 125.611 105.718C125.923 104.912 126.337 104.245 126.853 103.714C127.369 103.182 127.963 102.783 128.635 102.518C129.307 102.252 129.995 102.119 130.698 102.119C132.34 102.119 133.598 102.631 134.473 103.654C135.348 104.679 135.786 106.238 135.786 108.332C135.786 108.426 135.786 108.547 135.786 108.697C135.786 108.844 135.778 108.98 135.762 109.107H127.416C127.51 110.371 127.877 111.333 128.518 111.99C129.158 112.646 130.159 112.974 131.519 112.974C132.285 112.974 132.929 112.909 133.454 112.773C133.977 112.643 134.372 112.513 134.637 112.389L134.942 114.218C134.676 114.358 134.211 114.506 133.547 114.663C132.883 114.82 132.128 114.896 131.285 114.896C130.221 114.896 129.303 114.735 128.529 114.416C127.755 114.096 127.118 113.655 126.618 113.091C126.118 112.529 125.746 111.86 125.504 111.087C125.262 110.314 125.142 109.466 125.142 108.545ZM133.511 107.348C133.527 106.362 133.281 105.554 132.773 104.92C132.264 104.287 131.566 103.971 130.675 103.971C130.175 103.971 129.733 104.069 129.35 104.265C128.967 104.459 128.643 104.714 128.377 105.025C128.111 105.339 127.904 105.697 127.755 106.105C127.607 106.512 127.51 106.925 127.463 107.348H133.511Z" fill="black"/>
<path d="M146.689 96.7962L148.869 96.4199V114.263C148.368 114.404 147.728 114.544 146.946 114.685C146.164 114.825 145.266 114.896 144.25 114.896C143.312 114.896 142.468 114.749 141.717 114.452C140.968 114.154 140.325 113.733 139.795 113.186C139.263 112.639 138.853 111.97 138.564 111.179C138.274 110.391 138.13 109.505 138.13 108.52C138.13 107.583 138.251 106.721 138.493 105.941C138.736 105.159 139.091 104.485 139.559 103.923C140.029 103.36 140.603 102.925 141.283 102.611C141.964 102.3 142.741 102.142 143.617 102.142C144.319 102.142 144.94 102.235 145.48 102.425C146.019 102.611 146.422 102.789 146.688 102.963V96.7962H146.689ZM146.689 105.002C146.423 104.784 146.04 104.572 145.54 104.369C145.039 104.167 144.493 104.064 143.899 104.064C143.273 104.064 142.738 104.178 142.293 104.403C141.847 104.632 141.483 104.943 141.202 105.341C140.921 105.741 140.717 106.213 140.593 106.761C140.467 107.307 140.404 107.894 140.404 108.52C140.404 109.942 140.757 111.04 141.46 111.813C142.164 112.588 143.102 112.974 144.274 112.974C144.868 112.974 145.364 112.945 145.763 112.892C146.161 112.837 146.47 112.779 146.689 112.715V105.002H146.689Z" fill="black"/>
<path d="M160.591 104.346C160.263 104.705 159.83 105.214 159.291 105.87C158.752 106.526 158.173 107.252 157.556 108.049C156.938 108.848 156.321 109.683 155.704 110.559C155.086 111.434 154.543 112.27 154.074 113.068H160.781V114.896H151.47V113.442C151.846 112.755 152.306 111.997 152.855 111.169C153.401 110.339 153.975 109.516 154.577 108.696C155.179 107.873 155.765 107.099 156.336 106.372C156.906 105.646 157.403 105.033 157.825 104.532H151.799V102.703H160.591V104.346H160.591Z" fill="black"/>
<path d="M167.368 102.166C168.243 102.166 168.983 102.28 169.585 102.505C170.185 102.733 170.67 103.052 171.038 103.468C171.404 103.88 171.666 104.375 171.823 104.943C171.979 105.514 172.058 106.143 172.058 106.831V114.453C171.87 114.484 171.609 114.526 171.272 114.579C170.936 114.636 170.556 114.686 170.135 114.734C169.712 114.781 169.255 114.823 168.763 114.862C168.271 114.899 167.781 114.919 167.297 114.919C166.609 114.919 165.977 114.851 165.399 114.71C164.82 114.569 164.319 114.345 163.898 114.041C163.476 113.737 163.148 113.334 162.914 112.833C162.679 112.335 162.562 111.733 162.562 111.028C162.562 110.356 162.698 109.777 162.973 109.293C163.246 108.808 163.617 108.418 164.086 108.12C164.554 107.823 165.101 107.605 165.727 107.464C166.352 107.323 167.008 107.252 167.697 107.252C167.915 107.252 168.142 107.265 168.376 107.287C168.611 107.311 168.835 107.342 169.045 107.382C169.256 107.422 169.439 107.457 169.595 107.487C169.752 107.518 169.862 107.543 169.924 107.557V106.95C169.924 106.588 169.885 106.232 169.807 105.881C169.729 105.53 169.588 105.217 169.386 104.942C169.182 104.669 168.905 104.451 168.553 104.286C168.201 104.123 167.744 104.041 167.18 104.041C166.463 104.041 165.832 104.092 165.294 104.193C164.754 104.295 164.353 104.4 164.087 104.509L163.828 102.704C164.109 102.58 164.579 102.458 165.234 102.341C165.891 102.224 166.602 102.166 167.368 102.166ZM167.556 113.092C168.072 113.092 168.528 113.08 168.927 113.056C169.326 113.034 169.658 112.991 169.923 112.927V109.294C169.768 109.214 169.514 109.15 169.162 109.096C168.809 109.039 168.385 109.011 167.884 109.011C167.556 109.011 167.208 109.037 166.841 109.082C166.474 109.13 166.137 109.226 165.832 109.376C165.528 109.524 165.274 109.726 165.07 109.985C164.867 110.242 164.767 110.583 164.767 111.005C164.767 111.787 165.016 112.33 165.517 112.635C166.015 112.94 166.695 113.092 167.556 113.092Z" fill="black"/>
<path d="M180.99 114.897V98.6484H190.91V100.596H183.265V105.424H190.064V107.324H183.265V112.95H191.495V114.897H180.99V114.897Z" fill="black"/>
<path d="M201.6 96.7962L203.78 96.4199V114.263C203.279 114.404 202.638 114.544 201.856 114.685C201.074 114.825 200.176 114.896 199.161 114.896C198.222 114.896 197.379 114.749 196.627 114.452C195.878 114.154 195.237 113.733 194.705 113.186C194.174 112.639 193.764 111.97 193.474 111.179C193.184 110.391 193.04 109.505 193.04 108.52C193.04 107.583 193.162 106.721 193.404 105.941C193.645 105.159 194.001 104.485 194.47 103.923C194.939 103.36 195.513 102.925 196.194 102.611C196.873 102.3 197.65 102.142 198.527 102.142C199.23 102.142 199.852 102.235 200.392 102.425C200.929 102.611 201.334 102.789 201.599 102.963V96.7962H201.6ZM201.6 105.002C201.335 104.784 200.95 104.572 200.45 104.369C199.949 104.167 199.404 104.064 198.81 104.064C198.183 104.064 197.648 104.178 197.205 104.403C196.758 104.632 196.393 104.943 196.114 105.341C195.831 105.741 195.627 106.213 195.503 106.761C195.378 107.307 195.316 107.894 195.316 108.52C195.316 109.942 195.667 111.04 196.371 111.813C197.075 112.588 198.013 112.974 199.184 112.974C199.777 112.974 200.275 112.945 200.673 112.892C201.072 112.837 201.38 112.779 201.601 112.715V105.002H201.6Z" fill="black"/>
<path d="M217.123 114.289C216.622 114.413 215.964 114.544 215.141 114.686C214.321 114.826 213.372 114.897 212.295 114.897C211.356 114.897 210.565 114.761 209.926 114.487C209.284 114.214 208.77 113.828 208.377 113.325C207.986 112.825 207.706 112.235 207.534 111.557C207.362 110.876 207.277 110.122 207.277 109.294V102.447H209.455V108.824C209.455 110.311 209.691 111.371 210.16 112.013C210.63 112.655 211.418 112.974 212.526 112.974C212.761 112.974 213.004 112.966 213.255 112.95C213.505 112.935 213.737 112.915 213.957 112.892C214.177 112.87 214.376 112.847 214.556 112.822C214.734 112.799 214.864 112.771 214.942 112.74V102.448H217.123V114.289H217.123Z" fill="black"/>
<path d="M225.165 108.19C225.634 108.549 226.132 108.996 226.654 109.527C227.178 110.059 227.695 110.632 228.201 111.249C228.71 111.868 229.19 112.493 229.643 113.126C230.098 113.759 230.479 114.35 230.793 114.896H228.238C227.908 114.35 227.528 113.79 227.098 113.221C226.668 112.65 226.219 112.103 225.753 111.58C225.283 111.055 224.806 110.573 224.322 110.138C223.836 109.698 223.375 109.331 222.937 109.036V114.896H220.758V97.0766L222.937 96.7021V107.816C223.314 107.441 223.726 107.026 224.181 106.574C224.634 106.119 225.08 105.658 225.519 105.19C225.954 104.721 226.369 104.272 226.759 103.843C227.15 103.41 227.486 103.033 227.769 102.703H230.322C229.965 103.095 229.572 103.525 229.151 103.992C228.73 104.462 228.291 104.934 227.839 105.412C227.384 105.89 226.929 106.366 226.465 106.842C226.005 107.319 225.572 107.769 225.165 108.19Z" fill="black"/>
<path d="M236.818 102.166C237.694 102.166 238.432 102.28 239.033 102.505C239.636 102.733 240.119 103.052 240.487 103.468C240.854 103.88 241.115 104.375 241.273 104.943C241.428 105.514 241.507 106.143 241.507 106.831V114.453C241.321 114.484 241.058 114.526 240.721 114.579C240.385 114.636 240.006 114.686 239.585 114.734C239.163 114.781 238.704 114.823 238.214 114.862C237.722 114.899 237.233 114.919 236.747 114.919C236.06 114.919 235.426 114.851 234.85 114.71C234.27 114.569 233.77 114.345 233.349 114.041C232.925 113.737 232.597 113.334 232.362 112.833C232.128 112.335 232.011 111.733 232.011 111.028C232.011 110.356 232.148 109.777 232.422 109.293C232.696 108.808 233.067 108.418 233.535 108.12C234.005 107.823 234.551 107.605 235.178 107.464C235.803 107.323 236.459 107.252 237.146 107.252C237.366 107.252 237.592 107.265 237.827 107.287C238.062 107.311 238.283 107.342 238.494 107.382C238.705 107.422 238.89 107.457 239.045 107.487C239.201 107.518 239.311 107.543 239.373 107.557V106.95C239.373 106.588 239.334 106.232 239.257 105.881C239.178 105.53 239.038 105.217 238.836 104.942C238.633 104.669 238.356 104.451 238.002 104.286C237.652 104.123 237.194 104.041 236.631 104.041C235.913 104.041 235.283 104.092 234.743 104.193C234.203 104.295 233.802 104.4 233.536 104.509L233.277 102.704C233.559 102.58 234.028 102.458 234.684 102.341C235.342 102.224 236.052 102.166 236.818 102.166ZM237.007 113.092C237.521 113.092 237.978 113.08 238.378 113.056C238.777 113.034 239.107 112.991 239.373 112.927V109.294C239.217 109.214 238.963 109.15 238.612 109.096C238.259 109.039 237.835 109.011 237.334 109.011C237.006 109.011 236.656 109.037 236.29 109.082C235.924 109.13 235.588 109.226 235.282 109.376C234.977 109.524 234.722 109.726 234.519 109.985C234.316 110.242 234.216 110.583 234.216 111.005C234.216 111.787 234.465 112.33 234.965 112.635C235.466 112.94 236.144 113.092 237.007 113.092Z" fill="black"/>
<path d="M250.298 114.918C249.315 114.918 248.45 114.764 247.709 114.452C246.966 114.138 246.341 113.701 245.832 113.137C245.323 112.575 244.944 111.907 244.696 111.133C244.444 110.358 244.32 109.505 244.32 108.566C244.32 107.628 244.458 106.769 244.729 105.988C245.004 105.205 245.39 104.529 245.891 103.959C246.392 103.388 247.005 102.942 247.731 102.623C248.457 102.302 249.266 102.141 250.16 102.141C250.705 102.141 251.254 102.189 251.799 102.281C252.348 102.376 252.871 102.524 253.371 102.729L252.879 104.579C252.551 104.422 252.169 104.298 251.74 104.205C251.31 104.111 250.855 104.063 250.369 104.063C249.15 104.063 248.214 104.448 247.568 105.214C246.92 105.98 246.595 107.097 246.595 108.566C246.595 109.222 246.669 109.824 246.819 110.371C246.966 110.919 247.2 111.388 247.52 111.778C247.842 112.17 248.252 112.469 248.752 112.681C249.253 112.892 249.86 112.998 250.581 112.998C251.158 112.998 251.684 112.943 252.152 112.832C252.619 112.725 252.987 112.606 253.253 112.482L253.558 114.311C253.433 114.387 253.253 114.464 253.018 114.534C252.787 114.603 252.518 114.667 252.221 114.721C251.924 114.775 251.608 114.822 251.274 114.862C250.937 114.898 250.612 114.918 250.298 114.918Z" fill="black"/>
<path d="M253.793 119.281C253.606 119.281 253.363 119.258 253.066 119.213C252.77 119.165 252.52 119.102 252.317 119.023L252.597 117.241C252.754 117.288 252.934 117.328 253.137 117.359C253.341 117.391 253.527 117.407 253.7 117.407C254.452 117.407 254.984 117.175 255.305 116.714C255.627 116.254 255.786 115.577 255.786 114.686V102.704H257.967V114.664C257.967 116.225 257.611 117.387 256.899 118.145C256.19 118.902 255.153 119.281 253.793 119.281ZM256.866 100.501C256.476 100.501 256.141 100.372 255.868 100.113C255.596 99.8558 255.458 99.5082 255.458 99.0685C255.458 98.6333 255.597 98.2844 255.868 98.0283C256.141 97.7684 256.476 97.6396 256.866 97.6396C257.256 97.6396 257.589 97.768 257.861 98.0283C258.135 98.2844 258.273 98.6333 258.273 99.0685C258.273 99.5082 258.135 99.8561 257.861 100.113C257.589 100.372 257.256 100.501 256.866 100.501Z" fill="black"/>
<path d="M265.54 102.166C266.414 102.166 267.155 102.28 267.757 102.505C268.356 102.733 268.842 103.052 269.21 103.468C269.577 103.88 269.838 104.375 269.996 104.943C270.151 105.514 270.231 106.143 270.231 106.831V114.453C270.042 114.484 269.781 114.526 269.445 114.579C269.108 114.636 268.729 114.686 268.308 114.734C267.884 114.781 267.426 114.823 266.935 114.862C266.443 114.899 265.954 114.919 265.47 114.919C264.78 114.919 264.15 114.851 263.571 114.71C262.991 114.569 262.491 114.345 262.07 114.041C261.649 113.737 261.319 113.334 261.086 112.833C260.851 112.335 260.733 111.733 260.733 111.028C260.733 110.356 260.871 109.777 261.145 109.293C261.417 108.808 261.79 108.418 262.259 108.12C262.726 107.823 263.274 107.605 263.899 107.464C264.524 107.323 265.18 107.252 265.87 107.252C266.087 107.252 266.313 107.265 266.548 107.287C266.783 107.311 267.006 107.342 267.218 107.382C267.427 107.422 267.611 107.457 267.769 107.487C267.925 107.518 268.035 107.543 268.097 107.557V106.95C268.097 106.588 268.058 106.232 267.979 105.881C267.902 105.53 267.761 105.217 267.557 104.942C267.354 104.669 267.077 104.451 266.726 104.286C266.373 104.123 265.915 104.041 265.352 104.041C264.635 104.041 264.004 104.092 263.468 104.193C262.927 104.295 262.525 104.4 262.26 104.509L262 102.704C262.283 102.58 262.752 102.458 263.408 102.341C264.062 102.224 264.775 102.166 265.54 102.166ZM265.727 113.092C266.245 113.092 266.7 113.08 267.098 113.056C267.497 113.034 267.83 112.991 268.096 112.927V109.294C267.941 109.214 267.686 109.15 267.333 109.096C266.983 109.039 266.556 109.011 266.055 109.011C265.727 109.011 265.38 109.037 265.012 109.082C264.645 109.13 264.309 109.226 264.003 109.376C263.701 109.524 263.446 109.726 263.243 109.985C263.039 110.242 262.937 110.583 262.937 111.005C262.937 111.787 263.186 112.33 263.689 112.635C264.187 112.94 264.868 113.092 265.727 113.092Z" fill="black"/>
<path d="M287.11 108.097C287.362 108.411 287.678 108.822 288.059 109.328C288.444 109.837 288.837 110.4 289.244 111.017C289.651 111.635 290.053 112.281 290.451 112.951C290.85 113.623 291.191 114.273 291.472 114.897H288.987C288.673 114.305 288.333 113.703 287.966 113.092C287.599 112.483 287.228 111.901 286.852 111.346C286.476 110.792 286.106 110.271 285.738 109.786C285.371 109.301 285.04 108.88 284.743 108.521C284.539 108.537 284.331 108.545 284.121 108.545C283.909 108.545 283.695 108.545 283.477 108.545H281.436V114.897H279.163V98.883C279.802 98.7273 280.517 98.623 281.309 98.5659C282.098 98.5124 282.818 98.4844 283.477 98.4844C285.758 98.4844 287.497 98.9156 288.692 99.7735C289.888 100.635 290.487 101.916 290.487 103.621C290.487 104.698 290.202 105.621 289.631 106.387C289.06 107.151 288.22 107.722 287.11 108.097ZM283.664 100.477C282.694 100.477 281.953 100.501 281.436 100.548V106.668H283.053C283.836 106.668 284.539 106.629 285.165 106.55C285.79 106.473 286.319 106.323 286.748 106.106C287.178 105.888 287.509 105.577 287.743 105.179C287.977 104.781 288.095 104.254 288.095 103.597C288.095 102.986 287.977 102.479 287.743 102.073C287.509 101.667 287.192 101.345 286.794 101.112C286.395 100.876 285.929 100.712 285.388 100.619C284.848 100.525 284.274 100.477 283.664 100.477Z" fill="black"/>
<path d="M304.413 108.52C304.413 109.489 304.275 110.365 303.992 111.147C303.712 111.928 303.316 112.6 302.808 113.162C302.301 113.727 301.693 114.159 300.99 114.464C300.289 114.768 299.523 114.919 298.694 114.919C297.863 114.919 297.1 114.768 296.396 114.464C295.692 114.159 295.087 113.727 294.578 113.162C294.069 112.6 293.677 111.928 293.394 111.147C293.114 110.365 292.973 109.489 292.973 108.52C292.973 107.566 293.113 106.696 293.394 105.904C293.677 105.115 294.069 104.44 294.578 103.877C295.087 103.315 295.692 102.88 296.396 102.576C297.1 102.272 297.863 102.119 298.694 102.119C299.523 102.119 300.289 102.272 300.99 102.576C301.693 102.879 302.301 103.315 302.808 103.877C303.316 104.44 303.712 105.115 303.992 105.904C304.275 106.696 304.413 107.566 304.413 108.52ZM302.14 108.52C302.14 107.145 301.832 106.054 301.213 105.248C300.597 104.443 299.757 104.041 298.694 104.041C297.628 104.041 296.789 104.443 296.173 105.248C295.553 106.054 295.246 107.145 295.246 108.52C295.246 109.896 295.553 110.985 296.173 111.79C296.789 112.596 297.628 112.998 298.694 112.998C299.757 112.998 300.596 112.596 301.213 111.79C301.832 110.985 302.14 109.896 302.14 108.52Z" fill="black"/>
<path d="M314.988 104.346C314.66 104.705 314.225 105.214 313.688 105.87C313.148 106.526 312.568 107.252 311.952 108.049C311.333 108.848 310.717 109.683 310.098 110.559C309.481 111.434 308.939 112.27 308.469 113.068H315.174V114.896H305.865V113.442C306.242 112.755 306.703 111.997 307.25 111.169C307.796 110.339 308.37 109.516 308.972 108.696C309.574 107.873 310.162 107.099 310.731 106.372C311.302 105.646 311.799 105.033 312.22 104.532H306.193V102.703H314.988V104.346H314.988Z" fill="black"/>
<path d="M327.788 114.896C327.352 113.77 326.886 112.484 326.394 111.04C325.902 109.594 325.453 108.088 325.045 106.525C324.639 108.088 324.195 109.594 323.708 111.04C323.225 112.484 322.764 113.77 322.327 114.896H320.427C319.709 113.287 319.005 111.45 318.315 109.386C317.628 107.323 316.979 105.095 316.37 102.703H318.714C318.872 103.438 319.059 104.236 319.279 105.095C319.497 105.954 319.726 106.815 319.969 107.674C320.212 108.535 320.466 109.363 320.732 110.161C320.997 110.957 321.246 111.653 321.481 112.246C321.746 111.512 322.009 110.734 322.267 109.914C322.525 109.095 322.77 108.264 323.004 107.43C323.239 106.593 323.463 105.771 323.673 104.965C323.884 104.162 324.067 103.407 324.226 102.703H326.03C326.171 103.407 326.344 104.162 326.547 104.965C326.749 105.771 326.968 106.593 327.203 107.43C327.438 108.264 327.683 109.095 327.941 109.914C328.2 110.735 328.461 111.512 328.726 112.246C328.961 111.653 329.207 110.957 329.464 110.161C329.724 109.363 329.979 108.535 330.228 107.674C330.476 106.814 330.711 105.954 330.931 105.095C331.149 104.236 331.338 103.438 331.494 102.703H333.744C333.136 105.095 332.486 107.322 331.799 109.386C331.11 111.45 330.409 113.287 329.688 114.896H327.788Z" fill="black"/>
<path d="M346.406 108.519C346.406 109.488 346.264 110.364 345.984 111.146C345.702 111.927 345.306 112.599 344.8 113.161C344.291 113.726 343.686 114.158 342.982 114.463C342.279 114.767 341.512 114.918 340.684 114.918C339.856 114.918 339.09 114.767 338.386 114.463C337.683 114.158 337.078 113.726 336.569 113.161C336.063 112.599 335.666 111.928 335.387 111.146C335.104 110.364 334.963 109.488 334.963 108.519C334.963 107.565 335.104 106.695 335.387 105.903C335.666 105.115 336.063 104.439 336.569 103.877C337.078 103.314 337.683 102.879 338.386 102.575C339.09 102.271 339.856 102.118 340.684 102.118C341.512 102.118 342.279 102.271 342.982 102.575C343.686 102.879 344.291 103.314 344.8 103.877C345.306 104.439 345.702 105.115 345.984 105.903C346.264 106.695 346.406 107.565 346.406 108.519ZM344.13 108.519C344.13 107.145 343.821 106.053 343.206 105.248C342.587 104.442 341.747 104.04 340.684 104.04C339.621 104.04 338.782 104.442 338.162 105.248C337.545 106.053 337.239 107.145 337.239 108.519C337.239 109.895 337.545 110.985 338.162 111.789C338.782 112.595 339.621 112.997 340.684 112.997C341.747 112.997 342.587 112.595 343.206 111.789C343.821 110.985 344.13 109.895 344.13 108.519ZM343.522 98.0845L340.214 101.297L339.113 100.312L342.115 96.7021L343.522 98.0845Z" fill="black"/>
<path d="M347.367 119.281C347.18 119.281 346.937 119.258 346.64 119.213C346.344 119.165 346.095 119.102 345.891 119.023L346.172 117.241C346.329 117.288 346.507 117.328 346.711 117.359C346.915 117.391 347.101 117.407 347.273 117.407C348.025 117.407 348.56 117.175 348.879 116.714C349.201 116.254 349.359 115.577 349.359 114.686V102.704H351.542V114.664C351.542 116.225 351.186 117.387 350.473 118.145C349.764 118.902 348.726 119.281 347.367 119.281ZM350.44 100.501C350.049 100.501 349.716 100.372 349.442 100.113C349.17 99.8558 349.032 99.5082 349.032 99.0685C349.032 98.6333 349.17 98.2844 349.442 98.0283C349.716 97.7684 350.05 97.6396 350.44 97.6396C350.83 97.6396 351.164 97.768 351.435 98.0283C351.709 98.2844 351.848 98.6333 351.848 99.0685C351.848 99.5082 351.709 99.8561 351.435 100.113C351.164 100.372 350.829 100.501 350.44 100.501Z" fill="black"/>
</svg>